<svg id="Layer_1" viewBox="0 0 667 500" width="100%" x="0px"
     xmlns="http://www.w3.org/2000/svg" y="0px">
  <path d="
M1.000000,180.000000
	C1.000000,120.000008 1.000000,60.500015 1.000000,1.000016
	C223.333298,1.000011 445.666595,1.000011 667.999878,1.000005
	C667.999939,167.666611 667.999939,334.333221 668.000000,500.999878
	C445.666748,500.999939 223.333496,500.999939 1.000120,500.999969
	C1.000000,394.166656 1.000000,287.333344 1.000000,180.000000
M496.871979,68.329132
	C496.679718,67.887863 496.487457,67.446594 496.431030,66.492889
	C496.213654,66.022728 495.996277,65.552567 495.804077,64.338936
	C495.604858,63.893318 495.405640,63.447704 495.383240,62.503380
	C495.188385,62.027248 494.993530,61.551121 494.816193,60.327240
	C494.605133,59.885422 494.394104,59.443600 494.333099,58.502716
	C494.160431,58.024914 493.987793,57.547112 493.928711,56.129917
	C493.762085,49.421921 493.595459,42.713924 493.540649,35.476269
	C493.286438,35.011730 493.032257,34.547188 492.750244,33.357594
	C489.838379,24.867638 485.412567,17.671318 478.012115,12.027927
	C470.009033,5.924942 456.572296,6.285703 449.468140,13.768182
	C439.160095,24.625154 428.649170,35.293400 418.509521,46.304325
	C414.637482,50.509048 411.235016,55.239208 408.194977,60.091076
	C405.114349,65.007683 403.514435,70.996284 399.915710,75.415871
	C390.588104,86.871086 383.948578,99.916298 376.150879,112.285309
	C372.101685,118.708290 365.633575,123.629517 360.097260,129.065231
	C359.320435,129.827957 357.623260,129.874588 356.351074,129.878113
	C339.031189,129.926010 321.711090,129.918030 304.391174,129.882446
	C303.267426,129.880142 301.766327,129.940887 301.080902,129.294037
	C295.666138,124.183815 289.587128,119.497696 285.304962,113.537041
	C279.804718,105.880882 276.623077,96.522293 270.928101,89.051628
	C262.893951,78.512459 255.979095,67.479523 250.360550,55.540916
	C249.529739,53.775566 248.376816,52.061939 247.027267,50.656212
	C234.932281,38.057602 222.792191,25.501644 210.567154,13.029409
	C209.122421,11.555455 207.235382,10.213657 205.300827,9.571905
	C195.453156,6.305161 186.080536,5.748287 179.053192,15.421221
	C178.766586,15.815710 178.303619,16.078465 177.941238,16.422012
	C170.978683,23.022701 167.161545,31.338823 167.102448,40.705780
	C167.035782,51.274574 166.432693,61.609543 163.047012,71.684425
	C162.476349,73.382591 162.391357,75.243980 161.826172,77.788094
	C161.917175,87.845520 162.008194,97.902939 161.969788,108.780617
	C163.708664,116.882057 164.254410,125.501801 167.490997,132.952637
	C171.460953,142.091675 173.057632,150.729599 169.842758,160.123367
	C165.887299,171.681030 168.382339,182.286758 172.868729,193.338226
	C176.170914,201.472549 180.333694,206.620468 189.029175,208.790283
	C197.226379,210.835739 198.496246,214.825729 195.318100,222.715530
	C193.594421,226.994583 190.460083,231.724136 191.104630,235.746994
	C193.020889,247.707443 194.187195,260.390167 205.606018,268.435059
	C207.875778,270.034180 210.101273,272.803528 210.722488,275.419098
	C212.326675,282.173645 213.022415,289.143921 213.837189,296.374390
	C213.890686,296.916534 213.944168,297.458679 213.759827,298.855713
	C213.462036,304.170288 212.896927,309.487610 212.950958,314.798615
	C212.994247,319.055054 211.628525,322.341705 208.932190,325.605377
	C204.081421,331.476807 198.919815,337.306824 195.305267,343.927795
	C191.109497,351.613464 188.277954,360.071960 185.209961,368.327209
	C184.348953,370.643982 184.134079,373.558777 184.663208,375.971039
	C186.728210,385.385345 188.985214,394.773315 191.661850,404.029053
	C192.578445,407.198608 194.515045,410.320160 196.712906,412.825653
	C203.158875,420.174042 210.517929,426.774139 216.514389,434.452240
	C226.220917,446.880707 231.611664,461.721466 237.963425,475.995575
	C238.910217,478.123291 240.563644,480.623444 242.534882,481.497864
	C256.133606,487.530151 270.464783,488.027527 285.648193,486.488831
	C286.747955,486.281494 287.847687,486.074188 289.819550,486.005798
	C291.545990,485.753204 293.272400,485.500610 295.583862,485.462463
	C296.374176,485.269897 297.164459,485.077332 298.826721,485.018555
	C300.551208,484.767609 302.275696,484.516663 304.649231,484.479858
	C305.748932,484.276184 306.848602,484.072510 308.884674,483.998596
	C323.604462,483.958527 338.324280,483.918457 353.642120,484.196991
	C354.760986,484.233368 355.879822,484.269745 357.794312,484.671478
	C359.540955,484.749603 361.287598,484.827728 363.563171,485.236359
	C364.375732,485.256989 365.188293,485.277618 366.800903,485.654297
	C368.548218,485.730133 370.295532,485.805969 372.642731,486.197052
	C373.761566,486.238312 374.880371,486.279572 376.864716,486.700836
	C385.241150,486.607666 393.617554,486.514496 402.520355,486.521118
	C402.989075,486.282074 403.457794,486.042999 404.684448,485.842438
	C408.120941,484.725586 411.557434,483.608734 415.528198,482.550354
	C415.996094,482.306427 416.463959,482.062531 417.634796,481.847412
	C419.983856,478.612457 423.110474,475.689667 424.555054,472.091553
	C433.510223,449.786774 444.700287,429.050354 463.634735,413.451874
	C467.635315,410.156097 469.490479,405.964905 470.146790,400.524109
	C470.188416,400.014923 470.230072,399.505737 470.704315,398.327545
	C471.069366,396.528900 471.434448,394.730286 472.139191,392.523102
	C472.182892,392.014191 472.226562,391.505280 472.705139,390.329102
	C473.072723,388.530884 473.440338,386.732666 474.146881,384.525513
	C474.186951,384.015869 474.227020,383.506226 474.703400,382.330048
	C475.070648,380.531189 475.437897,378.732330 476.144653,376.526367
	C476.181702,376.016479 476.218719,375.506622 476.687622,374.290802
	C476.685944,373.138947 477.060181,371.816071 476.625854,370.860992
	C470.603638,357.618744 467.841675,342.711731 457.070251,331.881165
	C450.730377,325.506500 446.359985,318.413025 447.638794,308.941284
	C447.678589,308.646362 447.442383,308.314209 447.575958,307.168793
	C447.337738,304.464325 447.099548,301.759827 447.031097,298.144440
	C446.997986,294.754730 446.964874,291.365051 447.290100,287.567017
	C447.326294,287.043335 447.362488,286.519684 447.780334,285.281128
	C448.142670,283.171967 448.505005,281.062805 449.208923,278.540741
	C449.232361,278.026215 449.255798,277.511719 449.691193,276.336578
	C451.008545,274.147156 452.096558,271.771881 453.689850,269.806122
	C457.256775,265.405365 461.075195,261.208435 465.133728,256.525757
	C465.186249,256.015625 465.238739,255.505478 465.732208,254.292984
	C466.455566,250.850357 467.178925,247.407745 468.265472,243.562057
	C468.317291,243.039902 468.369110,242.517746 468.783173,241.372101
	C468.806305,240.897552 468.829437,240.422989 469.193878,239.536240
	C469.265778,239.022430 469.337677,238.508621 469.797791,237.228531
	C469.544159,235.133347 469.647125,232.912399 468.961853,230.969452
	C467.581146,227.054794 465.892395,223.233383 464.094849,219.486664
	C462.951355,217.103333 462.574951,214.875412 465.008911,213.384140
	C468.870331,211.018234 472.954132,209.017441 476.919586,206.818390
	C479.189423,205.559631 482.579163,204.744110 483.453278,202.816772
	C487.291412,194.354385 490.432098,185.572861 493.705383,176.861862
	C494.001343,176.074280 493.437622,174.963669 493.470184,173.502914
	C493.277039,173.015884 493.083862,172.528854 492.980988,171.259750
	C492.785736,170.508286 492.590485,169.756836 492.528625,168.483124
	C492.325073,167.999420 492.121521,167.515701 492.018982,166.201691
	C491.752899,165.135071 491.486847,164.068436 491.416931,162.507401
	C491.228699,162.023499 491.040497,161.539612 490.937958,160.264206
	C490.726074,159.510925 490.514191,158.757660 490.463135,157.496307
	C490.272064,157.011627 490.080963,156.526962 489.996338,155.226517
	C487.752869,148.656982 488.984070,142.547455 492.092865,136.512985
	C493.651733,133.487000 494.564178,130.128021 496.155853,126.428406
	C496.192078,125.618805 496.228302,124.809204 496.645355,123.261185
	C496.732391,122.162819 496.819427,121.064453 497.252136,119.442375
	C497.262665,118.628242 497.273193,117.814110 497.650970,116.258499
	C497.746735,115.164856 497.842529,114.071205 498.288849,112.563889
	C498.283447,112.042007 498.278046,111.520119 498.661255,110.137856
	C498.557312,98.426994 498.453369,86.716125 498.502655,74.490021
	C498.277527,74.015022 498.052399,73.540024 497.857605,72.332664
	C497.666840,71.889755 497.476044,71.446854 497.465454,70.498398
	C497.255005,70.019737 497.044586,69.541077 496.871979,68.329132
z" fill="#FFFFFF" opacity="1.000000"
        stroke="none"/>
  <path d="
M493.428833,36.005928
	C493.595459,42.713924 493.762085,49.421921 493.688171,56.732334
	C493.692780,57.890427 493.937927,58.446106 494.183044,59.001778
	C494.394104,59.443600 494.605133,59.885422 494.625549,60.836807
	C494.692078,61.898285 494.949219,62.450191 495.206421,63.002098
	C495.405640,63.447704 495.604858,63.893318 495.610352,64.853806
	C495.709503,65.914223 496.002350,66.459778 496.295197,67.005325
	C496.487457,67.446594 496.679718,67.887863 496.664062,68.833527
	C496.732483,69.893265 497.008881,70.448608 497.285278,71.003952
	C497.476044,71.446854 497.666840,71.889755 497.652832,72.841278
	C497.748505,73.901680 498.048950,74.453468 498.349426,75.005264
	C498.453369,86.716125 498.557312,98.426994 498.240356,110.647705
	C497.859070,111.764221 497.898682,112.370895 497.938324,112.977562
	C497.842529,114.071205 497.746735,115.164856 497.211395,116.731529
	C496.816681,118.125069 496.861572,119.045578 496.906464,119.966087
	C496.819427,121.064453 496.732391,122.162819 496.206787,123.729004
	C495.768463,125.104424 495.768707,126.012039 495.768982,126.919647
	C494.564178,130.128021 493.651733,133.487000 492.092865,136.512985
	C488.984070,142.547455 487.752869,148.656982 489.745850,155.768753
	C489.764313,156.875443 490.033295,157.439911 490.302277,158.004379
	C490.514191,158.757660 490.726074,159.510925 490.705200,160.792145
	C490.721924,161.880661 490.971344,162.441238 491.220764,163.001816
	C491.486847,164.068436 491.752899,165.135071 491.764709,166.754639
	C491.805389,167.873535 492.100281,168.439468 492.395203,169.005402
	C492.590485,169.756836 492.785736,170.508286 492.739319,171.783295
	C492.756134,172.872253 493.014648,173.437668 493.273132,174.003082
	C493.437622,174.963669 494.001343,176.074280 493.705383,176.861862
	C490.432098,185.572861 487.291412,194.354385 483.453278,202.816772
	C482.579163,204.744110 479.189423,205.559631 476.919586,206.818390
	C472.954132,209.017441 468.870331,211.018234 465.008911,213.384140
	C462.574951,214.875412 462.951355,217.103333 464.094849,219.486664
	C465.892395,223.233383 467.581146,227.054794 468.961853,230.969452
	C469.647125,232.912399 469.544159,235.133347 469.367493,237.674927
	C468.908997,238.730377 468.880768,239.339401 468.852539,239.948441
	C468.829437,240.422989 468.806305,240.897552 468.362488,241.748123
	C467.928619,242.737808 467.915436,243.351456 467.902283,243.965118
	C467.178925,247.407745 466.455566,250.850357 465.290161,254.715546
	C464.829132,255.734924 464.810181,256.331726 464.791199,256.928528
	C461.075195,261.208435 457.256775,265.405365 453.689850,269.806122
	C452.096558,271.771881 451.008545,274.147156 449.261230,276.742615
	C448.843292,277.750336 448.855316,278.351990 448.867340,278.953644
	C448.505005,281.062805 448.142670,283.171967 447.350647,285.706085
	C446.924561,286.745819 446.928131,287.360565 446.931702,287.975342
	C446.964874,291.365051 446.997986,294.754730 446.686646,298.883545
	C446.673096,302.414917 447.003967,305.207153 447.334869,307.999390
	C447.442383,308.314209 447.678589,308.646362 447.638794,308.941284
	C446.359985,318.413025 450.730377,325.506500 457.070251,331.881165
	C467.841675,342.711731 470.603638,357.618744 476.625854,370.860992
	C477.060181,371.816071 476.685944,373.138947 476.252930,374.718933
	C475.813904,375.742523 475.809509,376.338013 475.805145,376.933472
	C475.437897,378.732330 475.070648,380.531189 474.265198,382.737549
	C473.820648,383.741486 473.814301,384.337982 473.807922,384.934448
	C473.440338,386.732666 473.072723,388.530884 472.267700,390.736298
	C471.820007,391.739532 471.809753,392.335602 471.799500,392.931641
	C471.434448,394.730286 471.069366,396.528900 470.267456,398.735840
	C469.823242,399.740967 469.815887,400.337830 469.808533,400.934662
	C469.490479,405.964905 467.635315,410.156097 463.634735,413.451874
	C444.700287,429.050354 433.510223,449.786774 424.555054,472.091553
	C423.110474,475.689667 419.983856,478.612457 417.131165,481.641113
	C416.083008,481.787170 415.538452,482.139526 414.993896,482.491852
	C411.557434,483.608734 408.120941,484.725586 404.156403,485.635254
	C403.083557,485.759125 402.538757,486.090210 401.993988,486.421326
	C393.617554,486.514496 385.241150,486.607666 376.315308,486.236176
	C374.524872,485.808289 373.283875,485.845062 372.042847,485.881836
	C370.295532,485.805969 368.548218,485.730133 366.300110,485.218628
	C364.877655,484.823914 363.955933,484.864868 363.034241,484.905823
	C361.287598,484.827728 359.540955,484.749603 357.278198,484.215942
	C355.522736,483.799713 354.283417,483.839050 353.044067,483.878357
	C338.324280,483.918457 323.604462,483.958527 308.214844,483.703918
	C306.363373,483.694702 305.181793,483.980194 304.000183,484.265686
	C302.275696,484.516663 300.551208,484.767609 298.221619,484.731995
	C296.743927,484.712952 295.871399,484.980469 294.998840,485.247986
	C293.272400,485.500610 291.545990,485.753204 289.181458,485.706726
	C287.362274,485.695557 286.181183,485.983490 285.000092,486.271362
	C270.464783,488.027527 256.133606,487.530151 242.534882,481.497864
	C240.563644,480.623444 238.910217,478.123291 237.963425,475.995575
	C231.611664,461.721466 226.220917,446.880707 216.514389,434.452240
	C210.517929,426.774139 203.158875,420.174042 196.712906,412.825653
	C194.515045,410.320160 192.578445,407.198608 191.661850,404.029053
	C188.985214,394.773315 186.728210,385.385345 184.663208,375.971039
	C184.134079,373.558777 184.348953,370.643982 185.209961,368.327209
	C188.277954,360.071960 191.109497,351.613464 195.305267,343.927795
	C198.919815,337.306824 204.081421,331.476807 208.932190,325.605377
	C211.628525,322.341705 212.994247,319.055054 212.950958,314.798615
	C212.896927,309.487610 213.462036,304.170288 214.102844,298.290100
	C214.324219,297.159027 214.202606,296.593536 214.080978,296.028046
	C213.022415,289.143921 212.326675,282.173645 210.722488,275.419098
	C210.101273,272.803528 207.875778,270.034180 205.606018,268.435059
	C194.187195,260.390167 193.020889,247.707443 191.104630,235.746994
	C190.460083,231.724136 193.594421,226.994583 195.318100,222.715530
	C198.496246,214.825729 197.226379,210.835739 189.029175,208.790283
	C180.333694,206.620468 176.170914,201.472549 172.868729,193.338226
	C168.382339,182.286758 165.887299,171.681030 169.842758,160.123367
	C173.057632,150.729599 171.460953,142.091675 167.490997,132.952637
	C164.254410,125.501801 163.708664,116.882057 162.312653,108.065948
	C162.770554,100.283241 162.989502,93.214653 162.952057,86.147423
	C162.935944,83.106812 162.388184,80.069031 162.081970,77.029961
	C162.391357,75.243980 162.476349,73.382591 163.047012,71.684425
	C166.432693,61.609543 167.035782,51.274574 167.102448,40.705780
	C167.161545,31.338823 170.978683,23.022701 177.941238,16.422012
	C178.303619,16.078465 178.766586,15.815710 179.053192,15.421221
	C186.080536,5.748287 195.453156,6.305161 205.300827,9.571905
	C207.235382,10.213657 209.122421,11.555455 210.567154,13.029409
	C222.792191,25.501644 234.932281,38.057602 247.027267,50.656212
	C248.376816,52.061939 249.529739,53.775566 250.360550,55.540916
	C255.979095,67.479523 262.893951,78.512459 270.928101,89.051628
	C276.623077,96.522293 279.804718,105.880882 285.304962,113.537041
	C289.587128,119.497696 295.666138,124.183815 301.080902,129.294037
	C301.766327,129.940887 303.267426,129.880142 304.391174,129.882446
	C321.711090,129.918030 339.031189,129.926010 356.351074,129.878113
	C357.623260,129.874588 359.320435,129.827957 360.097260,129.065231
	C365.633575,123.629517 372.101685,118.708290 376.150879,112.285309
	C383.948578,99.916298 390.588104,86.871086 399.915710,75.415871
	C403.514435,70.996284 405.114349,65.007683 408.194977,60.091076
	C411.235016,55.239208 414.637482,50.509048 418.509521,46.304325
	C428.649170,35.293400 439.160095,24.625154 449.468140,13.768182
	C456.572296,6.285703 470.009033,5.924942 478.012115,12.027927
	C485.412567,17.671318 489.838379,24.867638 492.580231,33.872200
	C492.749756,34.926510 493.089294,35.466217 493.428833,36.005928
M439.051819,41.522762
	C438.851715,41.806221 438.651642,42.089680 437.886932,42.728855
	C435.168884,45.430950 432.450867,48.133041 429.136261,51.109436
	C422.309204,56.236668 417.708435,62.945396 414.539276,71.508911
	C412.522461,75.140778 410.679626,78.883133 408.456329,82.383881
	C401.686890,93.042892 394.838470,103.653473 387.879852,114.189804
	C384.884125,118.725754 381.821228,123.277344 378.254089,127.353889
	C376.031250,129.894135 376.951630,132.128204 378.484955,133.461929
	C383.914856,138.184921 389.477753,142.916824 397.102753,144.589966
	C397.505859,142.929886 397.842590,141.834137 398.033600,140.713547
	C401.758453,118.860916 405.965027,97.139717 414.957489,76.675217
	C415.753845,74.862991 416.216095,72.903969 417.252747,70.459740
	C421.900177,64.415436 426.547638,58.371128 431.775024,51.974525
	C434.274445,49.076664 436.773895,46.178799 439.731079,43.084969
	C440.018860,42.886787 440.203339,42.617775 440.829193,41.883934
	C440.774139,41.490021 440.719086,41.096107 440.664062,40.702194
	C440.277405,40.887032 439.890747,41.071869 439.051819,41.522762
M175.796204,64.753716
	C175.524460,66.164383 175.252716,67.575043 174.768768,69.732246
	C171.303955,89.362778 171.826767,108.783463 177.237869,127.951057
	C177.976959,126.259811 178.010452,124.602615 177.971832,122.947098
	C177.553635,105.018143 177.124084,87.089462 176.964462,68.346565
	C176.929581,66.924629 176.894699,65.502686 177.338455,63.764862
	C177.328018,63.345234 177.317581,62.925606 177.307159,62.505981
	C176.878326,63.024895 176.449493,63.543808 175.796204,64.753716
M354.317780,418.076324
	C354.614899,418.970398 354.911987,419.864502 355.209106,420.758575
	C355.726044,420.546387 356.242950,420.334167 356.759888,420.121948
	C356.188110,419.429901 355.616364,418.737823 355.744751,418.004547
	C356.495117,417.332245 357.245483,416.659973 358.173401,415.251373
	C363.130035,402.714355 362.048370,401.062042 349.586273,398.384735
	C332.936493,394.807739 316.727539,397.159546 298.909302,400.760956
	C300.730469,406.210297 302.369171,411.113617 303.932190,416.717926
	C304.249420,418.082001 304.566620,419.446045 304.883850,420.810150
	C305.739838,420.465424 306.595825,420.120697 307.451752,419.775940
	C306.791321,418.617279 306.194275,417.413849 305.428467,416.329590
	C305.221924,416.037109 304.503265,416.106293 304.128601,415.201233
	C305.147644,413.142517 305.699890,410.025696 307.313171,409.313965
	C309.026611,408.558044 311.940979,409.699249 313.969604,410.726013
	C315.818726,411.661896 317.204651,413.532532 318.758453,415.028839
	C324.021057,420.096710 323.561127,423.199310 317.073669,426.805328
	C316.184631,427.299530 315.391205,427.965790 314.300293,428.729645
	C325.680328,431.892517 339.739868,431.658386 346.105103,428.208191
	C344.981537,427.575256 343.995697,427.014618 343.004974,426.462738
	C337.537659,423.417145 337.059753,419.895050 341.566010,415.486969
	C343.344910,413.746857 344.960541,411.568909 347.106232,410.551697
	C349.213379,409.552795 352.298401,408.899353 354.191437,409.764191
	C355.473816,410.350037 355.437500,413.822449 355.505432,416.327393
	C355.320465,416.868469 355.135498,417.409576 354.317780,418.076324
M329.515350,448.378326
	C330.164154,451.393341 331.827026,448.832581 333.106720,449.285583
	C333.194183,449.333832 333.281647,449.382080 333.369080,449.430298
	C333.249634,449.284058 333.130188,449.137817 332.933685,448.302338
	C331.939880,447.334930 330.946075,446.367523 329.952271,445.400116
	C329.616394,446.249023 329.280518,447.097931 328.389923,448.055756
	C328.078522,448.369202 327.767120,448.682678 327.455719,448.996124
	C327.664948,449.177612 327.874146,449.359100 328.083405,449.540619
	C328.405090,449.043854 328.726776,448.547089 329.515350,448.378326
M211.089661,32.716583
	C214.570847,36.392525 218.052032,40.068466 221.533218,43.744408
	C221.946594,43.393501 222.359985,43.042599 222.773376,42.691692
	C219.179199,38.801929 215.585037,34.912167 211.850143,30.685648
	C211.850143,30.685648 211.547272,30.481997 211.190796,29.916044
	C208.747437,27.191780 206.383713,24.390383 203.839600,21.763710
	C200.970352,18.801350 193.674042,17.499788 191.105637,19.354443
	C182.335190,25.687569 177.266083,33.940727 177.424408,45.449120
	C177.554947,45.829876 177.685471,46.210636 177.815994,46.591396
	C178.203186,46.039330 178.590393,45.487263 179.097137,44.247143
	C180.729660,41.013863 182.161560,37.654613 184.079224,34.600361
	C185.040237,33.069729 186.875946,31.058104 188.334091,31.043331
	C195.693420,30.968777 203.058655,31.479740 210.560379,31.996916
	C210.560379,31.996916 210.789871,32.108822 211.089661,32.716583
M483.968384,128.019135
	C484.581940,126.299103 485.499115,124.624176 485.762360,122.852104
	C488.657013,103.368706 490.162720,83.891403 484.890259,63.860153
	C484.567566,63.389362 484.246277,62.917534 483.905975,62.459820
	C483.901794,62.454151 483.527802,62.688572 483.538605,62.711651
	C483.776978,63.221130 484.045349,63.716564 484.317932,65.126015
	C484.061310,74.937592 483.759064,84.748253 483.559998,94.560997
	C483.327179,106.039238 483.184326,117.519318 482.554474,129.335190
	C482.728760,129.749283 482.903046,130.163361 483.077362,130.577438
	C483.354675,129.966980 483.632019,129.356522 483.968384,128.019135
M449.245026,30.073139
	C446.688354,32.930481 444.131683,35.787823 441.575012,38.645164
	C441.954529,38.987995 442.334045,39.330822 442.713562,39.673653
	C445.585419,36.858860 448.457245,34.044067 452.215149,31.070889
	C458.011230,30.970522 463.814056,31.007303 469.600983,30.721636
	C473.467224,30.530779 475.815002,32.138554 477.379974,35.565548
	C478.762787,38.593601 480.474030,41.471680 482.040283,44.415977
	C483.476501,32.733376 477.482208,25.074457 468.996124,18.839771
	C468.229614,18.276625 466.832703,18.499971 465.726562,18.482138
	C457.678009,18.352383 454.311523,24.835690 449.245026,30.073139
M245.709503,275.816437
	C246.383881,268.194946 246.916382,260.556183 247.839249,252.964890
	C248.051682,251.217468 249.189316,248.964447 250.608231,248.085464
	C257.939453,243.543976 265.347870,238.753464 274.680450,242.423294
	C275.586456,242.779572 276.803680,242.482498 277.599762,242.954926
	C280.168854,244.479523 283.644318,245.657791 284.910980,247.982635
	C289.343140,256.117401 293.033752,264.659241 296.928253,273.082428
	C298.755585,277.034668 300.405365,281.068970 302.596954,286.131836
	C303.346313,284.115021 303.781342,283.388275 303.876617,282.619415
	C304.878601,274.534729 305.857941,266.446777 306.745422,258.348938
	C306.846191,257.429596 306.501312,256.373230 306.100891,255.500717
	C301.864349,246.269547 297.757202,236.932816 287.469238,232.586319
	C286.113953,232.013718 284.967865,230.952164 283.712036,230.136780
	C279.176483,227.191879 265.978607,227.713577 261.275391,230.270157
	C251.894196,235.369598 246.963623,244.361328 240.703964,252.274963
	C238.532913,255.019653 238.218079,257.346313 239.182816,260.451904
	C240.955261,266.157684 242.474335,271.942169 244.107544,278.385376
	C244.528931,278.729401 244.950302,279.073425 245.371689,279.417450
	C245.543823,278.500519 245.715958,277.583618 245.709503,275.816437
M415.113800,278.234344
	C415.441132,278.639984 415.768494,279.045593 416.095825,279.451233
	C416.353119,278.832001 416.610413,278.212799 416.837463,276.844696
	C418.505676,271.090942 420.248962,265.357178 421.791229,259.569855
	C422.195953,258.051178 422.696899,255.763016 421.932922,254.852036
	C414.946991,246.522293 410.374512,236.079590 400.069946,230.616241
	C392.881134,226.804810 385.032288,226.763809 378.512817,229.617569
	C369.017731,233.773819 360.210938,239.943634 356.939789,251.034546
	C356.154846,253.696030 354.181335,256.307495 354.292267,258.875549
	C354.607788,266.180756 355.670746,273.457336 356.553619,280.731323
	C356.728851,282.175018 357.411774,283.557068 358.191467,286.007538
	C359.399750,283.472534 360.118164,282.164703 360.663086,280.788147
	C363.236176,274.288269 365.652039,267.724060 368.329071,261.267822
	C372.793091,250.501801 378.060303,240.815979 392.223999,241.307846
	C396.397156,241.452789 409.974884,246.334335 412.172028,249.854187
	C412.677917,250.664566 412.983734,251.698792 413.068359,252.657639
	C413.799713,260.946930 414.459412,269.242523 415.113800,278.234344
M379.968811,270.391754
	C379.626678,268.654358 379.284546,266.916992 378.942413,265.179596
	C378.408295,265.246765 377.874207,265.313904 377.340088,265.381073
	C376.937744,267.056732 376.535400,268.732391 376.107971,271.133362
	C372.700439,279.268616 370.006653,287.818970 365.609833,295.378876
	C363.090485,299.710693 363.456940,302.750458 365.110809,306.659058
	C371.338654,321.377502 377.464661,336.139008 383.660492,350.871063
	C384.056335,351.812256 384.721008,352.640411 385.810974,354.419464
	C386.937073,351.541321 387.976929,349.642303 388.417450,347.613190
	C389.653290,341.920502 390.490021,336.140228 391.757599,330.455505
	C395.073944,315.583099 396.170166,300.023163 405.096497,286.841309
	C405.653046,286.019379 405.539734,284.601593 405.428070,283.492188
	C404.627747,275.538300 403.903137,267.570160 402.771332,259.661346
	C402.519135,257.899200 401.123108,255.724426 399.608185,254.815491
	C391.527618,249.967072 386.222992,251.507584 381.356445,259.687439
	C393.441315,257.331085 398.190186,258.754852 399.868744,265.237640
	C401.408051,271.182617 398.313568,276.214020 391.573395,277.481598
	C390.362640,277.704498 389.151855,277.927399 387.202423,278.219940
	C384.773895,275.889771 382.345367,273.559601 379.968811,270.391754
M278.001312,257.370636
	C275.419678,252.869858 268.771362,250.960464 263.938477,253.115677
	C260.035522,254.856232 257.657623,256.977600 257.591461,261.928772
	C257.496246,269.059906 256.127045,276.166901 255.541779,283.303894
	C255.405838,284.961639 256.066193,286.761566 256.656067,288.388794
	C259.416138,296.002716 262.962555,303.405640 264.945709,311.209778
	C267.894501,322.814056 269.692657,334.707489 272.149963,346.442413
	C272.680328,348.975220 273.930634,351.357239 274.849335,353.808716
	C275.377899,353.763245 275.906494,353.717773 276.435059,353.672302
	C283.366058,336.401093 290.307556,319.134064 297.195709,301.845764
	C297.527313,301.013519 297.747253,299.834473 297.414520,299.085541
	C292.971344,289.085327 288.436951,279.125397 283.866699,269.182312
	C283.464844,268.307922 282.652405,267.622284 281.533936,266.231201
	C281.236969,267.787811 281.065796,268.390594 281.013763,269.003479
	C280.504486,275.000336 276.322327,278.880981 270.620941,278.624084
	C264.875824,278.365234 260.478760,273.492249 260.688049,267.616211
	C260.995605,258.982819 268.904083,255.513412 278.074219,260.690704
	C278.742188,261.387177 279.410156,262.083679 280.078125,262.780151
	C280.484863,262.405640 280.891602,262.031097 281.298340,261.656555
	C280.339050,260.436890 279.379730,259.217194 278.001312,257.370636
M203.660980,40.687679
	C200.106842,40.950809 196.552689,41.213940 192.496307,42.032520
	C189.026077,47.219711 187.156754,52.813404 187.740524,59.166164
	C187.916458,61.080879 187.441971,63.055359 186.660980,65.337036
	C186.767578,67.888954 186.874161,70.440865 187.179611,73.866180
	C187.107254,76.248886 187.034897,78.631592 186.474518,81.401436
	C186.737717,82.601036 187.000900,83.800644 187.613052,85.863838
	C187.745621,89.907837 187.878174,93.951836 187.507874,98.376816
	C187.766876,99.584602 188.025879,100.792381 188.616592,102.880981
	C188.707047,110.702637 188.563492,118.536163 188.959442,126.342323
	C189.297424,133.005569 187.547073,138.951187 185.220169,145.143417
	C179.375504,160.696915 175.103897,176.549149 184.594559,192.426224
	C184.678787,192.567123 184.678421,192.777039 184.787537,192.881851
	C186.235077,194.272293 187.511200,196.533478 189.183105,196.881470
	C197.650833,198.644073 203.325485,204.034393 207.821289,210.791245
	C209.068207,212.665298 209.563522,215.831482 208.947708,217.989319
	C207.633392,222.594711 205.094604,226.838608 203.588470,231.405716
	C202.638321,234.286926 202.648483,237.484848 202.227890,240.540726
	C202.665283,240.610748 203.102676,240.680786 203.540070,240.750824
	C205.378296,237.139465 206.500717,232.826569 209.206635,230.065598
	C214.525009,224.639023 220.793823,220.154419 226.506485,215.096100
	C227.858521,213.898911 229.028625,212.098068 229.495148,210.363205
	C232.664276,198.577637 236.134964,187.142059 246.051437,178.749588
	C253.807251,172.185730 254.927872,162.194061 253.653061,153.528229
	C250.224625,130.222382 246.963699,106.712807 237.212219,84.845253
	C235.591187,81.210091 235.138138,76.731316 232.719421,73.831909
	C223.461563,62.734196 213.621887,52.121841 203.660980,40.687679
M456.120911,241.079788
	C456.439941,241.567444 456.758972,242.055099 457.078003,242.542755
	C457.382233,242.019287 457.686462,241.495819 457.975525,240.193802
	C457.668976,237.017960 457.847260,233.695190 456.939880,230.701431
	C455.645538,226.430786 453.416656,222.452103 451.876099,218.242874
	C451.288727,216.638123 450.692749,214.137054 451.483978,213.078583
	C455.496735,207.710815 458.582184,200.828217 465.760040,199.190552
	C472.966095,197.546448 476.904999,193.642670 478.579773,186.653168
	C479.574615,182.501450 482.884552,178.212021 482.239441,174.489487
	C480.296082,163.274780 476.887024,152.316940 474.133728,141.238007
	C473.266083,137.746857 472.022583,134.185944 472.043121,130.663330
	C472.191376,105.241798 472.909637,79.819321 472.684113,54.403912
	C472.645050,50.005379 468.984619,45.638988 466.645660,40.644604
	C463.430817,40.855709 460.215973,41.066814 456.399048,41.688637
	C446.920593,52.345284 437.433868,62.994652 427.985565,73.677971
	C427.458710,74.273682 427.173401,75.123573 426.902893,75.899506
	C421.395721,91.697914 414.320129,107.003258 412.201355,123.861259
	C411.603851,128.615402 410.343628,133.286240 408.909790,138.135925
	C408.923981,138.751709 408.938202,139.367477 409.041290,140.814240
	C408.456146,143.541687 407.871033,146.269150 406.830566,149.154846
	C406.864685,149.762207 406.898804,150.369583 407.031708,151.807327
	C406.757874,152.871780 406.484039,153.936234 405.794128,155.171356
	C405.990631,155.782715 406.187134,156.394089 406.751251,157.697998
	C406.811584,158.473526 406.871887,159.249069 406.522675,160.295853
	C406.804047,160.865784 407.085388,161.435715 407.759644,162.731979
	C408.156006,165.160904 408.552368,167.589828 408.531616,170.293686
	C408.827911,170.864426 409.124237,171.435181 409.792175,172.635071
	C411.520935,174.812180 412.940369,177.360489 415.031342,179.102951
	C424.748840,187.200989 428.460419,198.266541 430.494568,210.307693
	C430.757904,210.873154 431.021271,211.438614 431.673309,212.634476
	C433.438843,214.058609 435.264343,215.415085 436.959595,216.918503
	C444.618622,223.711060 454.553131,228.654327 456.120911,241.079788
M316.533661,318.305176
	C316.704102,318.875580 316.874573,319.445953 317.211273,320.905792
	C315.362122,332.392059 314.183502,344.039337 311.474976,355.319244
	C308.773865,366.568359 304.539185,377.449249 300.630585,389.565033
	C320.878906,384.712341 340.223999,384.165894 360.760162,389.831909
	C359.079559,384.772675 358.127930,381.281342 356.766174,377.958069
	C354.811066,373.186737 351.618256,368.729614 350.611359,363.799835
	C347.885223,350.452728 345.674774,336.972137 343.975006,323.454529
	C343.020996,315.867371 342.859741,307.816589 353.107452,304.828674
	C346.039673,290.185669 344.653564,274.764069 343.333679,259.336884
	C343.180511,257.546661 342.809814,255.432434 343.538513,253.963882
	C349.014435,242.927628 353.261322,231.531113 365.182251,224.478638
	C374.108093,219.198059 382.448212,215.787552 392.654083,217.416672
	C395.735413,217.908524 399.382050,217.496307 401.798035,219.029434
	C409.324280,223.805420 417.458954,228.083160 422.126099,236.910767
	C422.586273,237.063690 423.046448,237.216614 423.506622,237.369537
	C423.297424,236.894791 423.088226,236.420059 422.699371,235.137192
	C422.095398,228.686783 421.929230,222.157059 420.778442,215.805710
	C419.284851,207.562317 418.696960,198.364944 412.171753,192.467194
	C402.482300,183.709473 397.243927,173.250595 396.258728,160.510513
	C395.944244,156.443924 393.711487,155.131775 390.312531,153.793747
	C381.473785,150.314331 373.785736,144.983582 367.949219,138.405289
	C356.956512,142.546768 345.889038,140.248001 334.653381,139.648819
	C331.770203,139.831207 328.886993,140.013596 325.138672,140.565002
	C318.321259,140.600067 311.496094,140.842987 304.689362,140.590118
	C300.776306,140.444763 296.893097,139.496262 292.582550,138.846939
	C286.581635,145.139603 278.857483,150.684082 269.730072,154.065811
	C266.778656,155.159317 264.990570,156.462448 264.717468,159.878830
	C263.670532,172.975449 258.633148,184.080566 248.295547,192.649536
	C246.413803,194.209351 245.416046,196.996277 244.369064,199.374710
	C239.797684,209.759583 239.697174,221.013840 237.776291,232.180496
	C237.865677,232.792374 237.955048,233.404251 238.240936,234.606461
	C238.777374,234.757736 239.581818,235.215530 239.810852,235.015259
	C244.875305,230.586823 249.587738,225.699966 254.954926,221.686356
	C263.538605,215.267395 280.674988,216.013168 290.098083,221.149292
	C302.528595,227.924606 311.058594,237.551865 315.880585,250.681259
	C316.613403,252.676498 317.820251,254.791855 317.669403,256.764557
	C317.126495,263.862854 316.095917,270.923828 314.794006,278.172607
	C314.868774,278.783936 314.943512,279.395264 315.162628,280.825256
	C312.907623,288.874420 310.652618,296.923584 308.285431,305.373169
	C315.458313,306.427551 316.711823,311.889313 316.533661,318.305176
M224.190308,304.927002
	C223.911316,309.284485 223.632324,313.641998 222.763489,318.261444
	C222.845917,319.842285 222.928360,321.423096 223.137817,323.735596
	C221.962769,325.703064 220.935120,327.778564 219.586395,329.618713
	C214.587753,336.438629 208.746628,342.765625 204.627502,350.070343
	C200.578796,357.250183 196.348663,365.236603 195.692383,373.158600
	C195.067520,380.701202 198.955429,388.617889 200.860901,396.369720
	C201.059464,397.177429 201.113220,398.068115 201.501083,398.773560
	C203.054443,401.598877 204.142746,405.004669 206.429062,407.047455
	C217.854385,417.255554 227.439880,428.895813 234.500534,442.450745
	C238.951447,450.995605 242.502319,460.005554 246.760132,468.657654
	C247.650970,470.467926 249.632080,472.199707 251.519745,472.986481
	C263.194885,477.852478 275.544312,476.582153 287.495087,475.286346
	C311.085388,472.728516 334.604126,471.944916 358.258972,473.776794
	C371.186737,474.777954 384.158997,475.722839 397.110596,475.715057
	C405.664062,475.709900 413.154510,473.535889 416.768890,463.439331
	C424.731049,441.197693 437.195496,421.660431 455.404999,406.144958
	C456.742249,405.005554 458.132904,403.436676 458.571411,401.816498
	C461.005951,392.821259 463.165222,383.751251 465.378967,374.697113
	C465.567902,373.924377 465.762512,372.940857 465.455658,372.290710
	C460.515472,361.823212 458.798248,349.637299 450.330109,341.076630
	C440.561920,331.201752 435.012146,320.146149 436.523163,305.907349
	C436.991516,301.493896 435.380005,296.825134 436.040314,292.473480
	C437.650421,281.862579 436.680267,270.266357 445.916504,262.072876
	C446.500031,261.555237 446.942932,260.738708 447.167236,259.977570
	C450.509979,248.634293 443.937714,233.875931 433.010101,228.442749
	C433.010101,230.025970 433.010101,231.511078 432.588348,233.242035
	C432.807373,233.828690 433.026398,234.415344 433.615845,235.868164
	C433.494141,241.245850 433.372437,246.623550 432.710083,252.262421
	C432.801910,253.506470 432.893738,254.750504 433.160004,256.821167
	C431.438751,263.553986 430.237610,270.477509 427.857635,276.968811
	C425.199341,284.219147 421.663452,291.177887 418.074829,298.036102
	C417.165833,299.773315 414.521576,301.799591 412.820038,301.676941
	C409.232513,301.418304 408.591064,303.221344 408.025146,305.844330
	C405.855469,315.899628 403.642853,325.945648 400.952423,336.129120
	C400.968140,336.752716 400.983856,337.376282 401.083862,338.826050
	C399.520386,345.013885 399.462402,352.255646 396.041168,357.143005
	C390.888397,364.503906 387.368469,371.173492 390.388641,380.603912
	C390.259094,390.347382 390.088562,400.090637 390.046326,409.834503
	C390.040314,411.219849 390.657196,412.607910 391.073273,414.748566
	C387.076813,423.847290 383.854889,433.404572 378.828857,441.893707
	C375.082489,448.221497 368.681854,453.057220 360.612061,453.020447
	C354.752960,452.993805 349.547363,453.959442 344.675415,457.260498
	C339.624390,460.682831 333.860870,460.924591 327.844147,459.842072
	C327.231293,459.889496 326.618408,459.936920 325.179138,460.110504
	C321.330994,458.725983 317.518036,457.231171 313.624115,455.990265
	C310.228210,454.908020 306.736145,453.345337 303.295410,453.367493
	C298.008514,453.401550 293.733154,451.866150 289.362976,449.011993
	C284.525208,445.852448 281.267548,441.953339 279.198212,436.583374
	C276.209229,428.826904 270.658173,421.464417 269.894592,413.576172
	C268.594238,400.142334 267.499390,386.290100 271.318787,372.885620
	C272.232117,369.680115 271.978577,367.154236 269.717865,364.665039
	C264.299896,358.699371 261.679016,351.663696 260.419342,343.630646
	C258.435791,330.980957 255.481720,318.478394 252.713272,305.963348
	C252.366272,304.394714 250.482300,301.826782 249.601929,301.942322
	C245.309830,302.505737 243.626144,299.864838 241.861160,296.911530
	C229.942749,276.968536 225.132538,255.467056 227.589630,232.346313
	C227.731827,231.008194 227.608032,229.641815 227.608032,228.053833
	C218.245178,234.141968 213.040329,242.081299 212.465927,253.480423
	C212.724365,255.652908 212.982803,257.825378 213.680984,260.585236
	C220.134964,265.872711 222.536957,272.994476 222.519684,281.303192
	C222.824509,281.870789 223.129318,282.438385 223.808075,283.785248
	C223.942200,289.523956 224.076309,295.262695 223.705048,301.235321
	C223.810867,302.159576 223.916687,303.083862 224.190308,304.927002
M371.907440,431.433502
	C379.177155,419.003876 381.336700,405.689789 380.807526,391.299347
	C380.352020,378.912964 377.603241,367.186279 373.625610,355.805176
	C369.191864,343.118896 363.265778,330.953461 357.958038,318.574738
	C357.547272,317.616760 356.889374,316.764801 356.346313,315.863586
	C354.977478,317.992035 354.420471,320.023346 354.710449,321.925507
	C356.512756,333.748444 358.423645,345.556671 360.492188,357.335815
	C361.001129,360.234131 361.860809,363.193573 363.189056,365.804504
	C369.652954,378.510498 372.854095,391.518280 371.314941,406.110413
	C369.587860,422.484039 361.342865,435.208954 346.233459,440.751831
	C356.614960,443.930634 367.966431,442.773712 371.907440,431.433502
M282.255524,373.595825
	C281.658813,386.348633 281.021393,399.099915 280.530487,411.856781
	C280.483154,413.087616 281.266296,414.388214 281.798584,415.597107
	C284.414886,421.539307 287.247681,427.392273 289.683014,433.406708
	C293.466553,442.750610 305.743988,444.266266 313.651001,441.027344
	C310.437012,438.914246 306.481018,436.464233 302.688202,433.783356
	C297.305328,429.978668 293.885590,424.610168 292.290466,418.363953
	C290.867950,412.793671 290.275848,407.009949 289.345123,401.315826
	C287.811279,391.931274 289.730255,382.862610 293.762360,374.640320
	C302.165710,357.504181 303.584747,338.907379 306.374634,320.567596
	C306.606720,319.042145 305.660889,317.337463 305.262360,315.716064
	C304.758026,315.680511 304.253723,315.644928 303.749390,315.609375
	C296.908081,334.768585 286.241272,352.444458 282.255524,373.595825
M255.975616,104.769844
	C258.478210,117.946732 260.980804,131.123627 263.805634,145.997101
	C270.545746,141.619385 276.504608,138.179871 281.923462,134.034485
	C284.363525,132.167877 284.952637,129.223297 281.589508,126.571045
	C279.325775,124.785797 277.567841,122.186401 276.037567,119.674675
	C270.248657,110.173256 264.716339,100.515762 258.950195,91.000175
	C254.143188,83.067368 248.374420,75.613159 244.453140,67.278191
	C240.804581,59.522930 234.959854,54.197102 228.960495,48.737381
	C228.365082,48.195534 227.237335,48.238625 226.356659,48.010231
	C239.775116,60.854385 247.081543,76.858490 252.203140,94.125877
	C253.194199,97.467255 254.582092,100.690926 255.975616,104.769844
M381.239075,262.748993
	C381.137756,262.235962 381.036438,261.722900 380.935150,261.209869
	C380.099609,261.781708 379.264069,262.353516 378.428558,262.925354
	C378.628387,263.203308 378.828217,263.481232 379.028046,263.759186
	C379.593597,263.530762 380.159149,263.302338 381.239075,262.748993
M281.610535,264.796234
	C281.214935,264.792023 280.819305,264.787811 280.423706,264.783630
	C280.422211,264.947784 280.409698,265.254639 280.420837,265.255493
	C280.814423,265.285889 281.210236,265.287537 281.610535,264.796234
z" fill="#CC1950" opacity="1.000000"
        stroke="none"/>
  <path d="
M161.954071,77.409027
	C162.388184,80.069031 162.935944,83.106812 162.952057,86.147423
	C162.989502,93.214653 162.770554,100.283241 162.377350,107.655823
	C162.008194,97.902939 161.917175,87.845520 161.954071,77.409027
z" fill="#CC1B51" opacity="1.000000"
        stroke="none"/>
  <path d="
M447.455414,307.584106
	C447.003967,305.207153 446.673096,302.414917 446.601807,299.339020
	C447.099548,301.759827 447.337738,304.464325 447.455414,307.584106
z" fill="#CC1B51" opacity="1.000000"
        stroke="none"/>
  <path d="
M353.343079,484.037689
	C354.283417,483.839050 355.522736,483.799713 356.880371,484.033264
	C355.879822,484.269745 354.760986,484.233368 353.343079,484.037689
z" fill="#CC1B51" opacity="1.000000"
        stroke="none"/>
  <path d="
M304.324707,484.372772
	C305.181793,483.980194 306.363373,483.694702 307.746643,483.639008
	C306.848602,484.072510 305.748932,484.276184 304.324707,484.372772
z" fill="#CC1B51" opacity="1.000000"
        stroke="none"/>
  <path d="
M285.324158,486.380127
	C286.181183,485.983490 287.362274,485.695557 288.745392,485.637268
	C287.847687,486.074188 286.747955,486.281494 285.324158,486.380127
z" fill="#CC1B51" opacity="1.000000"
        stroke="none"/>
  <path d="
M372.342773,486.039429
	C373.283875,485.845062 374.524872,485.808289 375.882568,486.046173
	C374.880371,486.279572 373.761566,486.238312 372.342773,486.039429
z" fill="#CC1B51" opacity="1.000000"
        stroke="none"/>
  <path d="
M497.079285,119.704231
	C496.861572,119.045578 496.816681,118.125069 497.027771,117.102264
	C497.273193,117.814110 497.262665,118.628242 497.079285,119.704231
z" fill="#CC1B51" opacity="1.000000"
        stroke="none"/>
  <path d="
M363.298706,485.071106
	C363.955933,484.864868 364.877655,484.823914 365.900085,485.040588
	C365.188293,485.277618 364.375732,485.256989 363.298706,485.071106
z" fill="#CC1B51" opacity="1.000000"
        stroke="none"/>
  <path d="
M495.962402,126.674026
	C495.768707,126.012039 495.768463,125.104424 496.016357,124.098206
	C496.228302,124.809204 496.192078,125.618805 495.962402,126.674026
z" fill="#CC1B51" opacity="1.000000"
        stroke="none"/>
  <path d="
M295.291351,485.355225
	C295.871399,484.980469 296.743927,484.712952 297.785645,484.665070
	C297.164459,485.077332 296.374176,485.269897 295.291351,485.355225
z" fill="#CC1B51" opacity="1.000000"
        stroke="none"/>
  <path d="
M415.261047,482.521118
	C415.538452,482.139526 416.083008,481.787170 416.779663,481.626740
	C416.463959,482.062531 415.996094,482.306427 415.261047,482.521118
z" fill="#CC1B51" opacity="1.000000"
        stroke="none"/>
  <path d="
M447.110901,287.771179
	C446.928131,287.360565 446.924561,286.745819 447.159821,286.063538
	C447.362488,286.519684 447.326294,287.043335 447.110901,287.771179
z" fill="#CC1B51" opacity="1.000000"
        stroke="none"/>
  <path d="
M213.959076,296.201233
	C214.202606,296.593536 214.324219,297.159027 214.221741,297.862671
	C213.944168,297.458679 213.890686,296.916534 213.959076,296.201233
z" fill="#CC1B51" opacity="1.000000"
        stroke="none"/>
  <path d="
M475.974915,376.729919
	C475.809509,376.338013 475.813904,375.742523 476.037018,375.071899
	C476.218719,375.506622 476.181702,376.016479 475.974915,376.729919
z" fill="#CC1B51" opacity="1.000000"
        stroke="none"/>
  <path d="
M473.977417,384.729980
	C473.814301,384.337982 473.820648,383.741486 474.047058,383.070801
	C474.227020,383.506226 474.186951,384.015869 473.977417,384.729980
z" fill="#CC1B51" opacity="1.000000"
        stroke="none"/>
  <path d="
M471.969360,392.727356
	C471.809753,392.335602 471.820007,391.739532 472.050262,391.069946
	C472.226562,391.505280 472.182892,392.014191 471.969360,392.727356
z" fill="#CC1B51" opacity="1.000000"
        stroke="none"/>
  <path d="
M402.257172,486.471191
	C402.538757,486.090210 403.083557,485.759125 403.777405,485.615997
	C403.457794,486.042999 402.989075,486.282074 402.257172,486.471191
z" fill="#CC1B51" opacity="1.000000"
        stroke="none"/>
  <path d="
M469.977661,400.729370
	C469.815887,400.337830 469.823242,399.740967 470.051147,399.070343
	C470.230072,399.505737 470.188416,400.014923 469.977661,400.729370
z" fill="#CC1B51" opacity="1.000000"
        stroke="none"/>
  <path d="
M449.038147,278.747192
	C448.855316,278.351990 448.843292,277.750336 449.055237,277.072937
	C449.255798,277.511719 449.232361,278.026215 449.038147,278.747192
z" fill="#CC1B51" opacity="1.000000"
        stroke="none"/>
  <path d="
M493.484741,35.741096
	C493.089294,35.466217 492.749756,34.926510 492.594147,34.234726
	C493.032257,34.547188 493.286438,35.011730 493.484741,35.741096
z" fill="#CC1B51" opacity="1.000000"
        stroke="none"/>
  <path d="
M494.258057,58.752251
	C493.937927,58.446106 493.692780,57.890427 493.631409,57.202030
	C493.987793,57.547112 494.160431,58.024914 494.258057,58.752251
z" fill="#CC1B51" opacity="1.000000"
        stroke="none"/>
  <path d="
M495.294800,62.752739
	C494.949219,62.450191 494.692078,61.898285 494.616791,61.210686
	C494.993530,61.551121 495.188385,62.027248 495.294800,62.752739
z" fill="#CC1B51" opacity="1.000000"
        stroke="none"/>
  <path d="
M496.363098,66.749107
	C496.002350,66.459778 495.709503,65.914223 495.597778,65.225540
	C495.996277,65.552567 496.213654,66.022728 496.363098,66.749107
z" fill="#CC1B51" opacity="1.000000"
        stroke="none"/>
  <path d="
M497.375366,70.751175
	C497.008881,70.448608 496.732483,69.893265 496.645142,69.200165
	C497.044586,69.541077 497.255005,70.019737 497.375366,70.751175
z" fill="#CC1B51" opacity="1.000000"
        stroke="none"/>
  <path d="
M498.426025,74.747643
	C498.048950,74.453468 497.748505,73.901680 497.637665,73.207458
	C498.052399,73.540024 498.277527,74.015022 498.426025,74.747643
z" fill="#CC1B51" opacity="1.000000"
        stroke="none"/>
  <path d="
M498.113586,112.770721
	C497.898682,112.370895 497.859070,111.764221 498.046021,111.077896
	C498.278046,111.520119 498.283447,112.042007 498.113586,112.770721
z" fill="#CC1B51" opacity="1.000000"
        stroke="none"/>
  <path d="
M490.382690,157.750336
	C490.033295,157.439911 489.764313,156.875443 489.692596,156.176636
	C490.080963,156.526962 490.272064,157.011627 490.382690,157.750336
z" fill="#CC1B51" opacity="1.000000"
        stroke="none"/>
  <path d="
M491.318848,162.754608
	C490.971344,162.441238 490.721924,161.880661 490.662354,161.187897
	C491.040497,161.539612 491.228699,162.023499 491.318848,162.754608
z" fill="#CC1B51" opacity="1.000000"
        stroke="none"/>
  <path d="
M464.962463,256.727142
	C464.810181,256.331726 464.829132,255.734924 465.069672,255.066742
	C465.238739,255.505478 465.186249,256.015625 464.962463,256.727142
z" fill="#CC1B51" opacity="1.000000"
        stroke="none"/>
  <path d="
M468.083862,243.763580
	C467.915436,243.351456 467.928619,242.737808 468.181366,242.059875
	C468.369110,242.517746 468.317291,243.039902 468.083862,243.763580
z" fill="#CC1B51" opacity="1.000000"
        stroke="none"/>
  <path d="
M469.023193,239.742340
	C468.880768,239.339401 468.908997,238.730377 469.173401,238.058075
	C469.337677,238.508621 469.265778,239.022430 469.023193,239.742340
z" fill="#CC1B51" opacity="1.000000"
        stroke="none"/>
  <path d="
M493.371674,173.752991
	C493.014648,173.437668 492.756134,172.872253 492.694153,172.174347
	C493.083862,172.528854 493.277039,173.015884 493.371674,173.752991
z" fill="#CC1B51" opacity="1.000000"
        stroke="none"/>
  <path d="
M492.461914,168.744263
	C492.100281,168.439468 491.805389,167.873535 491.714233,167.169800
	C492.121521,167.515701 492.325073,167.999420 492.461914,168.744263
z" fill="#CC1B51" opacity="1.000000"
        stroke="none"/>
  <path d="
M433.010101,232.996170
	C433.010101,231.511078 433.010101,230.025970 433.010101,228.442749
	C443.937714,233.875931 450.509979,248.634293 447.167236,259.977570
	C446.942932,260.738708 446.500031,261.555237 445.916504,262.072876
	C436.680267,270.266357 437.650421,281.862579 436.040314,292.473480
	C435.380005,296.825134 436.991516,301.493896 436.523163,305.907349
	C435.012146,320.146149 440.561920,331.201752 450.330109,341.076630
	C458.798248,349.637299 460.515472,361.823212 465.455658,372.290710
	C465.762512,372.940857 465.567902,373.924377 465.378967,374.697113
	C463.165222,383.751251 461.005951,392.821259 458.571411,401.816498
	C458.132904,403.436676 456.742249,405.005554 455.404999,406.144958
	C437.195496,421.660431 424.731049,441.197693 416.768890,463.439331
	C413.154510,473.535889 405.664062,475.709900 397.110596,475.715057
	C384.158997,475.722839 371.186737,474.777954 358.258972,473.776794
	C334.604126,471.944916 311.085388,472.728516 287.495087,475.286346
	C275.544312,476.582153 263.194885,477.852478 251.519745,472.986481
	C249.632080,472.199707 247.650970,470.467926 246.760132,468.657654
	C242.502319,460.005554 238.951447,450.995605 234.500534,442.450745
	C227.439880,428.895813 217.854385,417.255554 206.429062,407.047455
	C204.142746,405.004669 203.054443,401.598877 201.501083,398.773560
	C201.113220,398.068115 201.059464,397.177429 200.860901,396.369720
	C198.955429,388.617889 195.067520,380.701202 195.692383,373.158600
	C196.348663,365.236603 200.578796,357.250183 204.627502,350.070343
	C208.746628,342.765625 214.587753,336.438629 219.586395,329.618713
	C220.935120,327.778564 221.962769,325.703064 223.249451,323.052856
	C223.358490,320.913269 223.355911,319.456360 223.353333,317.999481
	C223.632324,313.641998 223.911316,309.284485 224.269531,304.197021
	C224.302628,302.645172 224.256531,301.823303 224.210434,301.001404
	C224.076309,295.262695 223.942200,289.523956 223.683105,283.131866
	C223.349915,281.993683 223.141693,281.508911 222.933472,281.024109
	C222.536957,272.994476 220.134964,265.872711 213.583649,259.902100
	C213.331589,257.143066 213.176865,255.067154 213.022125,252.991226
	C213.040329,242.081299 218.245178,234.141968 227.608032,228.053833
	C227.608032,229.641815 227.731827,231.008194 227.589630,232.346313
	C225.132538,255.467056 229.942749,276.968536 241.861160,296.911530
	C243.626144,299.864838 245.309830,302.505737 249.601929,301.942322
	C250.482300,301.826782 252.366272,304.394714 252.713272,305.963348
	C255.481720,318.478394 258.435791,330.980957 260.419342,343.630646
	C261.679016,351.663696 264.299896,358.699371 269.717865,364.665039
	C271.978577,367.154236 272.232117,369.680115 271.318787,372.885620
	C267.499390,386.290100 268.594238,400.142334 269.894592,413.576172
	C270.658173,421.464417 276.209229,428.826904 279.198212,436.583374
	C281.267548,441.953339 284.525208,445.852448 289.362976,449.011993
	C293.733154,451.866150 298.008514,453.401550 303.295410,453.367493
	C306.736145,453.345337 310.228210,454.908020 313.624115,455.990265
	C317.518036,457.231171 321.330994,458.725983 325.803650,460.219788
	C326.953125,460.321564 327.478088,460.314056 328.003052,460.306549
	C333.860870,460.924591 339.624390,460.682831 344.675415,457.260498
	C349.547363,453.959442 354.752960,452.993805 360.612061,453.020447
	C368.681854,453.057220 375.082489,448.221497 378.828857,441.893707
	C383.854889,433.404572 387.076813,423.847290 391.207611,414.009033
	C391.218964,402.183136 391.096008,391.096771 390.973022,380.010437
	C387.368469,371.173492 390.888397,364.503906 396.041168,357.143005
	C399.462402,352.255646 399.520386,345.013885 401.221069,338.206909
	C401.387573,337.056885 401.416901,336.526031 401.446228,335.995148
	C403.642853,325.945648 405.855469,315.899628 408.025146,305.844330
	C408.591064,303.221344 409.232513,301.418304 412.820038,301.676941
	C414.521576,301.799591 417.165833,299.773315 418.074829,298.036102
	C421.663452,291.177887 425.199341,284.219147 427.857635,276.968811
	C430.237610,270.477509 431.438751,263.553986 433.239624,256.108643
	C433.296387,254.264496 433.273529,253.132874 433.250732,252.001236
	C433.372437,246.623550 433.494141,241.245850 433.547974,235.187683
	C433.323425,234.003510 433.166779,233.499832 433.010101,232.996170
z" fill="#FEFCFD" opacity="1.000000"
        stroke="none"/>
  <path d="
M334.997101,140.254059
	C345.889038,140.248001 356.956512,142.546768 367.949219,138.405289
	C373.785736,144.983582 381.473785,150.314331 390.312531,153.793747
	C393.711487,155.131775 395.944244,156.443924 396.258728,160.510513
	C397.243927,173.250595 402.482300,183.709473 412.171753,192.467194
	C418.696960,198.364944 419.284851,207.562317 420.778442,215.805710
	C421.929230,222.157059 422.095398,228.686783 422.560974,235.632553
	C422.422546,236.127914 422.009491,236.394562 422.009491,236.394562
	C417.458954,228.083160 409.324280,223.805420 401.798035,219.029434
	C399.382050,217.496307 395.735413,217.908524 392.654083,217.416672
	C382.448212,215.787552 374.108093,219.198059 365.182251,224.478638
	C353.261322,231.531113 349.014435,242.927628 343.538513,253.963882
	C342.809814,255.432434 343.180511,257.546661 343.333679,259.336884
	C344.653564,274.764069 346.039673,290.185669 353.107452,304.828674
	C342.859741,307.816589 343.020996,315.867371 343.975006,323.454529
	C345.674774,336.972137 347.885223,350.452728 350.611359,363.799835
	C351.618256,368.729614 354.811066,373.186737 356.766174,377.958069
	C358.127930,381.281342 359.079559,384.772675 360.760162,389.831909
	C340.223999,384.165894 320.878906,384.712341 300.630585,389.565033
	C304.539185,377.449249 308.773865,366.568359 311.474976,355.319244
	C314.183502,344.039337 315.362122,332.392059 317.277802,320.288849
	C317.224701,319.116394 317.105042,318.560913 316.985413,318.005402
	C316.711823,311.889313 315.458313,306.427551 308.285431,305.373169
	C310.652618,296.923584 312.907623,288.874420 315.256378,280.199280
	C315.316620,279.048492 315.283112,278.523682 315.249603,277.998901
	C316.095917,270.923828 317.126495,263.862854 317.669403,256.764557
	C317.820251,254.791855 316.613403,252.676498 315.880585,250.681259
	C311.058594,237.551865 302.528595,227.924606 290.098083,221.149292
	C280.674988,216.013168 263.538605,215.267395 254.954926,221.686356
	C249.587738,225.699966 244.875305,230.586823 239.810852,235.015259
	C239.581818,235.215530 238.777374,234.757736 238.312073,234.093811
	C238.332153,233.054245 238.281097,232.527344 238.230057,232.000443
	C239.697174,221.013840 239.797684,209.759583 244.369064,199.374710
	C245.416046,196.996277 246.413803,194.209351 248.295547,192.649536
	C258.633148,184.080566 263.670532,172.975449 264.717468,159.878830
	C264.990570,156.462448 266.778656,155.159317 269.730072,154.065811
	C278.857483,150.684082 286.581635,145.139603 292.582550,138.846939
	C296.893097,139.496262 300.776306,140.444763 304.689362,140.590118
	C311.496094,140.842987 318.321259,140.600067 326.006958,140.502655
	C329.582520,140.378235 332.289825,140.316147 334.997101,140.254059
M346.781281,219.282288
	C355.396515,206.454742 363.511780,193.255112 377.227173,184.842514
	C381.489807,182.227936 380.816620,177.541626 375.838623,175.050598
	C371.102020,172.680389 368.235077,169.183777 365.755341,164.604233
	C363.281616,160.035797 360.295746,155.077835 356.191803,152.215942
	C350.100372,147.968063 342.817657,145.803375 334.924255,146.670944
	C330.314575,147.177597 325.589203,146.526901 320.941406,146.812546
	C311.274139,147.406662 302.911469,150.387924 297.603180,159.435547
	C293.905548,165.737976 291.202393,172.773895 283.330963,175.957260
	C279.141815,177.651459 279.637817,183.030731 284.153687,185.457336
	C290.708527,188.979568 295.339081,194.304291 299.639130,200.030182
	C307.729401,210.803070 315.547424,221.781708 323.715210,232.494446
	C327.588806,237.574951 332.607361,237.508698 336.691864,232.579193
	C340.085907,228.482956 343.168243,224.128418 346.781281,219.282288
z" fill="#FEFBFC" opacity="1.000000"
        stroke="none"/>
  <path d="
M406.932220,160.024597
	C406.871887,159.249069 406.811584,158.473526 406.632385,157.014648
	C406.412384,155.887756 406.311279,155.444229 406.210175,155.000687
	C406.484039,153.936234 406.757874,152.871780 407.146606,151.179413
	C407.269653,150.033203 407.277771,149.514908 407.285889,148.996597
	C407.871033,146.269150 408.456146,143.541687 409.171265,140.190628
	C409.329926,139.043106 409.358673,138.519196 409.387390,137.995285
	C410.343628,133.286240 411.603851,128.615402 412.201355,123.861259
	C414.320129,107.003258 421.395721,91.697914 426.902893,75.899506
	C427.173401,75.123573 427.458710,74.273682 427.985565,73.677971
	C437.433868,62.994652 446.920593,52.345284 457.137329,41.618237
	C460.916077,41.451145 463.956482,41.354450 466.996948,41.257755
	C468.984619,45.638988 472.645050,50.005379 472.684113,54.403912
	C472.909637,79.819321 472.191376,105.241798 472.043121,130.663330
	C472.022583,134.185944 473.266083,137.746857 474.133728,141.238007
	C476.887024,152.316940 480.296082,163.274780 482.239441,174.489487
	C482.884552,178.212021 479.574615,182.501450 478.579773,186.653168
	C476.904999,193.642670 472.966095,197.546448 465.760040,199.190552
	C458.582184,200.828217 455.496735,207.710815 451.483978,213.078583
	C450.692749,214.137054 451.288727,216.638123 451.876099,218.242874
	C453.416656,222.452103 455.645538,226.430786 456.939880,230.701431
	C457.847260,233.695190 457.668976,237.017960 457.653564,240.617249
	C456.945740,240.824387 456.559814,240.608078 456.173920,240.391785
	C454.553131,228.654327 444.618622,223.711060 436.959595,216.918503
	C435.264343,215.415085 433.438843,214.058609 431.585052,212.068756
	C431.293701,211.015213 431.090607,210.527390 430.887512,210.039566
	C428.460419,198.266541 424.748840,187.200989 415.031342,179.102951
	C412.940369,177.360489 411.520935,174.812180 409.672913,172.057465
	C409.352020,170.992813 409.150391,170.505783 408.948730,170.018753
	C408.552368,167.589828 408.156006,165.160904 407.642487,162.109543
	C407.327637,160.999603 407.129913,160.512100 406.932220,160.024597
z" fill="#FEFDFD" opacity="1.000000"
        stroke="none"/>
  <path d="
M186.962524,81.014297
	C187.034897,78.631592 187.107254,76.248886 187.244415,73.078629
	C187.294617,69.861542 187.280014,67.431999 187.265411,65.002464
	C187.441971,63.055359 187.916458,61.080879 187.740524,59.166164
	C187.156754,52.813404 189.026077,47.219711 193.203369,41.808823
	C197.273422,41.499519 200.636414,41.413914 203.999405,41.328308
	C213.621887,52.121841 223.461563,62.734196 232.719421,73.831909
	C235.138138,76.731316 235.591187,81.210091 237.212219,84.845253
	C246.963699,106.712807 250.224625,130.222382 253.653061,153.528229
	C254.927872,162.194061 253.807251,172.185730 246.051437,178.749588
	C236.134964,187.142059 232.664276,198.577637 229.495148,210.363205
	C229.028625,212.098068 227.858521,213.898911 226.506485,215.096100
	C220.793823,220.154419 214.525009,224.639023 209.206635,230.065598
	C206.500717,232.826569 205.378296,237.139465 203.540070,240.750824
	C203.102676,240.680786 202.665283,240.610748 202.227890,240.540726
	C202.648483,237.484848 202.638321,234.286926 203.588470,231.405716
	C205.094604,226.838608 207.633392,222.594711 208.947708,217.989319
	C209.563522,215.831482 209.068207,212.665298 207.821289,210.791245
	C203.325485,204.034393 197.650833,198.644073 189.183105,196.881470
	C187.511200,196.533478 186.235077,194.272293 184.787537,192.881851
	C184.678421,192.777039 184.678787,192.567123 184.594559,192.426224
	C175.103897,176.549149 179.375504,160.696915 185.220169,145.143417
	C187.547073,138.951187 189.297424,133.005569 188.959442,126.342323
	C188.563492,118.536163 188.707047,110.702637 188.582092,102.116318
	C188.368637,100.233047 188.189697,99.114441 188.010742,97.995834
	C187.878174,93.951836 187.745621,89.907837 187.560455,85.107452
	C187.326096,83.238808 187.144318,82.126549 186.962524,81.014297
z" fill="#FFFDFD" opacity="1.000000"
        stroke="none"/>
  <path d="
M278.005768,260.019043
	C268.904083,255.513412 260.995605,258.982819 260.688049,267.616211
	C260.478760,273.492249 264.875824,278.365234 270.620941,278.624084
	C276.322327,278.880981 280.504486,275.000336 281.013763,269.003479
	C281.065796,268.390594 281.236969,267.787811 281.533936,266.231201
	C282.652405,267.622284 283.464844,268.307922 283.866699,269.182312
	C288.436951,279.125397 292.971344,289.085327 297.414520,299.085541
	C297.747253,299.834473 297.527313,301.013519 297.195709,301.845764
	C290.307556,319.134064 283.366058,336.401093 276.435059,353.672302
	C275.906494,353.717773 275.377899,353.763245 274.849335,353.808716
	C273.930634,351.357239 272.680328,348.975220 272.149963,346.442413
	C269.692657,334.707489 267.894501,322.814056 264.945709,311.209778
	C262.962555,303.405640 259.416138,296.002716 256.656067,288.388794
	C256.066193,286.761566 255.405838,284.961639 255.541779,283.303894
	C256.127045,276.166901 257.496246,269.059906 257.591461,261.928772
	C257.657623,256.977600 260.035522,254.856232 263.938477,253.115677
	C268.771362,250.960464 275.419678,252.869858 278.111572,258.014557
	C278.149811,259.112000 278.077789,259.565521 278.005768,260.019043
z" fill="#FEF9FA" opacity="1.000000"
        stroke="none"/>
  <path d="
M392.007477,278.019470
	C398.313568,276.214020 401.408051,271.182617 399.868744,265.237640
	C398.190186,258.754852 393.441315,257.331085 381.356445,259.687439
	C386.222992,251.507584 391.527618,249.967072 399.608185,254.815491
	C401.123108,255.724426 402.519135,257.899200 402.771332,259.661346
	C403.903137,267.570160 404.627747,275.538300 405.428070,283.492188
	C405.539734,284.601593 405.653046,286.019379 405.096497,286.841309
	C396.170166,300.023163 395.073944,315.583099 391.757599,330.455505
	C390.490021,336.140228 389.653290,341.920502 388.417450,347.613190
	C387.976929,349.642303 386.937073,351.541321 385.810974,354.419464
	C384.721008,352.640411 384.056335,351.812256 383.660492,350.871063
	C377.464661,336.139008 371.338654,321.377502 365.110809,306.659058
	C363.456940,302.750458 363.090485,299.710693 365.609833,295.378876
	C370.006653,287.818970 372.700439,279.268616 376.441956,270.631348
	C377.822876,270.496002 378.869843,270.862701 379.916809,271.229431
	C382.345367,273.559601 384.773895,275.889771 387.822998,278.369934
	C389.631531,278.353119 390.819489,278.186310 392.007477,278.019470
z" fill="#FEF9FA" opacity="1.000000"
        stroke="none"/>
  <path d="
M371.775757,431.786011
	C367.966431,442.773712 356.614960,443.930634 346.233459,440.751831
	C361.342865,435.208954 369.587860,422.484039 371.314941,406.110413
	C372.854095,391.518280 369.652954,378.510498 363.189056,365.804504
	C361.860809,363.193573 361.001129,360.234131 360.492188,357.335815
	C358.423645,345.556671 356.512756,333.748444 354.710449,321.925507
	C354.420471,320.023346 354.977478,317.992035 356.346313,315.863586
	C356.889374,316.764801 357.547272,317.616760 357.958038,318.574738
	C363.265778,330.953461 369.191864,343.118896 373.625610,355.805176
	C377.603241,367.186279 380.352020,378.912964 380.807526,391.299347
	C381.336700,405.689789 379.177155,419.003876 371.775757,431.786011
z" fill="#FDF5F7" opacity="1.000000"
        stroke="none"/>
  <path d="
M282.362061,373.194702
	C286.241272,352.444458 296.908081,334.768585 303.749390,315.609375
	C304.253723,315.644928 304.758026,315.680511 305.262360,315.716064
	C305.660889,317.337463 306.606720,319.042145 306.374634,320.567596
	C303.584747,338.907379 302.165710,357.504181 293.762360,374.640320
	C289.730255,382.862610 287.811279,391.931274 289.345123,401.315826
	C290.275848,407.009949 290.867950,412.793671 292.290466,418.363953
	C293.885590,424.610168 297.305328,429.978668 302.688202,433.783356
	C306.481018,436.464233 310.437012,438.914246 313.651001,441.027344
	C305.743988,444.266266 293.466553,442.750610 289.683014,433.406708
	C287.247681,427.392273 284.414886,421.539307 281.798584,415.597107
	C281.266296,414.388214 280.483154,413.087616 280.530487,411.856781
	C281.021393,399.099915 281.658813,386.348633 282.362061,373.194702
z" fill="#FCF3F6" opacity="1.000000"
        stroke="none"/>
  <path d="
M415.140442,277.536255
	C414.459412,269.242523 413.799713,260.946930 413.068359,252.657639
	C412.983734,251.698792 412.677917,250.664566 412.172028,249.854187
	C409.974884,246.334335 396.397156,241.452789 392.223999,241.307846
	C378.060303,240.815979 372.793091,250.501801 368.329071,261.267822
	C365.652039,267.724060 363.236176,274.288269 360.663086,280.788147
	C360.118164,282.164703 359.399750,283.472534 358.191467,286.007538
	C357.411774,283.557068 356.728851,282.175018 356.553619,280.731323
	C355.670746,273.457336 354.607788,266.180756 354.292267,258.875549
	C354.181335,256.307495 356.154846,253.696030 356.939789,251.034546
	C360.210938,239.943634 369.017731,233.773819 378.512817,229.617569
	C385.032288,226.763809 392.881134,226.804810 400.069946,230.616241
	C410.374512,236.079590 414.946991,246.522293 421.932922,254.852036
	C422.696899,255.763016 422.195953,258.051178 421.791229,259.569855
	C420.248962,265.357178 418.505676,271.090942 416.565521,277.264191
	C415.909210,277.634552 415.524811,277.585388 415.140442,277.536255
z" fill="#FDF5F7" opacity="1.000000"
        stroke="none"/>
  <path d="
M244.099045,277.693848
	C242.474335,271.942169 240.955261,266.157684 239.182816,260.451904
	C238.218079,257.346313 238.532913,255.019653 240.703964,252.274963
	C246.963623,244.361328 251.894196,235.369598 261.275391,230.270157
	C265.978607,227.713577 279.176483,227.191879 283.712036,230.136780
	C284.967865,230.952164 286.113953,232.013718 287.469238,232.586319
	C297.757202,236.932816 301.864349,246.269547 306.100891,255.500717
	C306.501312,256.373230 306.846191,257.429596 306.745422,258.348938
	C305.857941,266.446777 304.878601,274.534729 303.876617,282.619415
	C303.781342,283.388275 303.346313,284.115021 302.596954,286.131836
	C300.405365,281.068970 298.755585,277.034668 296.928253,273.082428
	C293.033752,264.659241 289.343140,256.117401 284.910980,247.982635
	C283.644318,245.657791 280.168854,244.479523 277.599762,242.954926
	C276.803680,242.482498 275.586456,242.779572 274.680450,242.423294
	C265.347870,238.753464 257.939453,243.543976 250.608231,248.085464
	C249.189316,248.964447 248.051682,251.217468 247.839249,252.964890
	C246.916382,260.556183 246.383881,268.194946 245.608032,276.429077
	C245.037369,277.259094 244.568207,277.476471 244.099045,277.693848
z" fill="#FDF5F7" opacity="1.000000"
        stroke="none"/>
  <path d="
M355.990967,416.003845
	C355.437500,413.822449 355.473816,410.350037 354.191437,409.764191
	C352.298401,408.899353 349.213379,409.552795 347.106232,410.551697
	C344.960541,411.568909 343.344910,413.746857 341.566010,415.486969
	C337.059753,419.895050 337.537659,423.417145 343.004974,426.462738
	C343.995697,427.014618 344.981537,427.575256 346.105103,428.208191
	C339.739868,431.658386 325.680328,431.892517 314.300293,428.729645
	C315.391205,427.965790 316.184631,427.299530 317.073669,426.805328
	C323.561127,423.199310 324.021057,420.096710 318.758453,415.028839
	C317.204651,413.532532 315.818726,411.661896 313.969604,410.726013
	C311.940979,409.699249 309.026611,408.558044 307.313171,409.313965
	C305.699890,410.025696 305.147644,413.142517 304.064728,415.599731
	C304.000854,415.998260 304.007843,416.016937 304.007843,416.016937
	C302.369171,411.113617 300.730469,406.210297 298.909302,400.760956
	C316.727539,397.159546 332.936493,394.807739 349.586273,398.384735
	C362.048370,401.062042 363.130035,402.714355 357.752045,415.665497
	C356.884125,416.054352 356.437531,416.029083 355.990967,416.003845
z" fill="#FDF7F9" opacity="1.000000"
        stroke="none"/>
  <path d="
M255.881256,104.369370
	C254.582092,100.690926 253.194199,97.467255 252.203140,94.125877
	C247.081543,76.858490 239.775116,60.854385 226.356659,48.010231
	C227.237335,48.238625 228.365082,48.195534 228.960495,48.737381
	C234.959854,54.197102 240.804581,59.522930 244.453140,67.278191
	C248.374420,75.613159 254.143188,83.067368 258.950195,91.000175
	C264.716339,100.515762 270.248657,110.173256 276.037567,119.674675
	C277.567841,122.186401 279.325775,124.785797 281.589508,126.571045
	C284.952637,129.223297 284.363525,132.167877 281.923462,134.034485
	C276.504608,138.179871 270.545746,141.619385 263.805634,145.997101
	C260.980804,131.123627 258.478210,117.946732 255.881256,104.369370
z" fill="#FDF5F7" opacity="1.000000"
        stroke="none"/>
  <path d="
M416.833496,71.013123
	C416.216095,72.903969 415.753845,74.862991 414.957489,76.675217
	C405.965027,97.139717 401.758453,118.860916 398.033600,140.713547
	C397.842590,141.834137 397.505859,142.929886 397.102753,144.589966
	C389.477753,142.916824 383.914856,138.184921 378.484955,133.461929
	C376.951630,132.128204 376.031250,129.894135 378.254089,127.353889
	C381.821228,123.277344 384.884125,118.725754 387.879852,114.189804
	C394.838470,103.653473 401.686890,93.042892 408.456329,82.383881
	C410.679626,78.883133 412.522461,75.140778 415.076965,71.259750
	C416.020905,71.011436 416.427216,71.012283 416.833496,71.013123
z" fill="#FDF6F8" opacity="1.000000"
        stroke="none"/>
  <path d="
M449.848633,29.767742
	C454.311523,24.835690 457.678009,18.352383 465.726562,18.482138
	C466.832703,18.499971 468.229614,18.276625 468.996124,18.839771
	C477.482208,25.074457 483.476501,32.733376 482.040283,44.415977
	C480.474030,41.471680 478.762787,38.593601 477.379974,35.565548
	C475.815002,32.138554 473.467224,30.530779 469.600983,30.721636
	C463.814056,31.007303 458.011230,30.970522 451.463135,30.973671
	C450.423615,30.506882 450.136108,30.137312 449.848633,29.767742
z" fill="#FBEDF1" opacity="1.000000"
        stroke="none"/>
  <path d="
M210.421829,31.785284
	C203.058655,31.479740 195.693420,30.968777 188.334091,31.043331
	C186.875946,31.058104 185.040237,33.069729 184.079224,34.600361
	C182.161560,37.654613 180.729660,41.013863 178.747986,44.648079
	C178.202667,45.062595 178.006500,45.076183 177.810349,45.089767
	C177.266083,33.940727 182.335190,25.687569 191.105637,19.354443
	C193.674042,17.499788 200.970352,18.801350 203.839600,21.763710
	C206.383713,24.390383 208.747437,27.191780 211.070221,30.510269
	C210.773697,31.331425 210.597763,31.558355 210.421829,31.785284
z" fill="#FBEFF3" opacity="1.000000"
        stroke="none"/>
  <path d="
M483.002441,128.998596
	C483.184326,117.519318 483.327179,106.039238 483.559998,94.560997
	C483.759064,84.748253 484.061310,74.937592 484.426208,64.785645
	C484.534485,64.445267 484.847656,64.531067 484.847656,64.531067
	C490.162720,83.891403 488.657013,103.368706 485.762360,122.852104
	C485.499115,124.624176 484.581940,126.299103 483.716492,128.461365
	C483.464600,128.903610 483.002472,128.998596 483.002441,128.998596
z" fill="#F9E3EA" opacity="1.000000"
        stroke="none"/>
  <path d="
M176.697632,69.160706
	C177.124084,87.089462 177.553635,105.018143 177.971832,122.947098
	C178.010452,124.602615 177.976959,126.259811 177.237869,127.951057
	C171.826767,108.783463 171.303955,89.362778 175.163788,69.347870
	C175.938416,69.029228 176.318024,69.094963 176.697632,69.160706
z" fill="#FAE9EF" opacity="1.000000"
        stroke="none"/>
  <path d="
M417.043121,70.736435
	C416.427216,71.012283 416.020905,71.011436 415.309906,71.006332
	C417.708435,62.945396 422.309204,56.236668 429.747742,51.145462
	C430.637848,51.563267 430.916473,51.945045 431.195099,52.326824
	C426.547638,58.371128 421.900177,64.415436 417.043121,70.736435
z" fill="#F9E3EA" opacity="1.000000"
        stroke="none"/>
  <path d="
M390.680847,380.307190
	C391.096008,391.096771 391.218964,402.183136 391.163879,413.632080
	C390.657196,412.607910 390.040314,411.219849 390.046326,409.834503
	C390.088562,400.090637 390.259094,390.347382 390.680847,380.307190
z" fill="#CC1B51" opacity="1.000000"
        stroke="none"/>
  <path d="
M211.990875,31.022404
	C215.585037,34.912167 219.179199,38.801929 222.773376,42.691692
	C222.359985,43.042599 221.946594,43.393501 221.533218,43.744408
	C218.052032,40.068466 214.570847,36.392525 211.189301,32.290188
	C211.522919,31.583330 211.756897,31.302866 211.990875,31.022404
z" fill="#F3CDD9" opacity="1.000000"
        stroke="none"/>
  <path d="
M431.485046,52.150673
	C430.916473,51.945045 430.637848,51.563267 430.046021,51.008312
	C432.450867,48.133041 435.168884,45.430950 438.368652,42.783409
	C438.991394,42.985626 439.132385,43.133289 439.273346,43.280945
	C436.773895,46.178799 434.274445,49.076664 431.485046,52.150673
z" fill="#F3CDD9" opacity="1.000000"
        stroke="none"/>
  <path d="
M449.546814,29.920441
	C450.136108,30.137312 450.423615,30.506882 451.020081,31.052864
	C448.457245,34.044067 445.585419,36.858860 442.713562,39.673653
	C442.334045,39.330822 441.954529,38.987995 441.575012,38.645164
	C444.131683,35.787823 446.688354,32.930481 449.546814,29.920441
z" fill="#F3CDD9" opacity="1.000000"
        stroke="none"/>
  <path d="
M203.830200,41.007996
	C200.636414,41.413914 197.273422,41.499519 193.454498,41.531097
	C196.552689,41.213940 200.106842,40.950809 203.830200,41.007996
z" fill="#CC1B51" opacity="1.000000"
        stroke="none"/>
  <path d="
M466.821289,40.951180
	C463.956482,41.354450 460.916077,41.451145 457.438385,41.412880
	C460.215973,41.066814 463.430817,40.855709 466.821289,40.951180
z" fill="#CC1B51" opacity="1.000000"
        stroke="none"/>
  <path d="
M334.825256,139.951447
	C332.289825,140.316147 329.582520,140.378235 326.439514,140.318146
	C328.886993,140.013596 331.770203,139.831207 334.825256,139.951447
z" fill="#CC1B51" opacity="1.000000"
        stroke="none"/>
  <path d="
M379.942810,270.810608
	C378.869843,270.862701 377.822876,270.496002 376.454468,270.268677
	C376.535400,268.732391 376.937744,267.056732 377.340088,265.381073
	C377.874207,265.313904 378.408295,265.246765 378.942413,265.179596
	C379.284546,266.916992 379.626678,268.654358 379.942810,270.810608
z" fill="#CC1B51" opacity="1.000000"
        stroke="none"/>
  <path d="
M304.010254,416.003876
	C304.503265,416.106293 305.221924,416.037109 305.428467,416.329590
	C306.194275,417.413849 306.791321,418.617279 307.451782,419.775940
	C306.595825,420.120697 305.739838,420.465424 304.883850,420.810120
	C304.566620,419.446045 304.249420,418.082001 303.970032,416.367432
	C304.007843,416.016937 304.000854,415.998260 304.010254,416.003876
z" fill="#CC1B51" opacity="1.000000"
        stroke="none"/>
  <path d="
M186.963196,65.169754
	C187.280014,67.431999 187.294617,69.861542 187.144989,72.641930
	C186.874161,70.440865 186.767578,67.888954 186.963196,65.169754
z" fill="#CC1B51" opacity="1.000000"
        stroke="none"/>
  <path d="
M332.991791,449.010590
	C331.827026,448.832581 330.164154,451.393341 329.256256,448.188141
	C328.997162,447.997955 328.944641,447.946838 328.944641,447.946838
	C329.280518,447.097931 329.616394,446.249023 329.952271,445.400116
	C330.946075,446.367523 331.939880,447.334930 332.966858,448.651184
	C333.000000,449.000000 332.991791,449.010590 332.991791,449.010590
z" fill="#CC1B51" opacity="1.000000"
        stroke="none"/>
  <path d="
M212.744019,253.235825
	C213.176865,255.067154 213.331589,257.143066 213.363770,259.608429
	C212.982803,257.825378 212.724365,255.652908 212.744019,253.235825
z" fill="#CC1B51" opacity="1.000000"
        stroke="none"/>
  <path d="
M278.039978,260.354858
	C278.077789,259.565521 278.149811,259.112000 278.321167,258.328003
	C279.379730,259.217194 280.339050,260.436890 281.298340,261.656555
	C280.891602,262.031097 280.484863,262.405640 280.078125,262.780151
	C279.410156,262.083679 278.742188,261.387177 278.039978,260.354858
z" fill="#CC1B51" opacity="1.000000"
        stroke="none"/>
  <path d="
M223.058411,318.130463
	C223.355911,319.456360 223.358490,320.913269 223.185944,322.687042
	C222.928360,321.423096 222.845917,319.842285 223.058411,318.130463
z" fill="#CC1B51" opacity="1.000000"
        stroke="none"/>
  <path d="
M355.044586,418.045776
	C355.616364,418.737823 356.188110,419.429901 356.759888,420.121948
	C356.242950,420.334167 355.726044,420.546387 355.209106,420.758575
	C354.911987,419.864502 354.614899,418.970398 354.657959,418.037415
	C354.998108,417.998535 355.044586,418.045776 355.044586,418.045776
z" fill="#CC1B51" opacity="1.000000"
        stroke="none"/>
  <path d="
M176.831055,68.753632
	C176.318024,69.094963 175.938416,69.029228 175.269897,68.974594
	C175.252716,67.575043 175.524460,66.164383 176.118332,64.405167
	C176.440460,64.056610 176.859802,64.080750 176.859802,64.080750
	C176.894699,65.502686 176.929581,66.924629 176.831055,68.753632
z" fill="#E794AD" opacity="1.000000"
        stroke="none"/>
  <path d="
M187.759308,98.186325
	C188.189697,99.114441 188.368637,100.233047 188.416229,101.675903
	C188.025879,100.792381 187.766876,99.584602 187.759308,98.186325
z" fill="#CC1B51" opacity="1.000000"
        stroke="none"/>
  <path d="
M432.980408,252.131836
	C433.273529,253.132874 433.296387,254.264496 433.152374,255.695343
	C432.893738,254.750504 432.801910,253.506470 432.980408,252.131836
z" fill="#CC1B51" opacity="1.000000"
        stroke="none"/>
  <path d="
M186.718536,81.207870
	C187.144318,82.126549 187.326096,83.238808 187.385986,84.675659
	C187.000900,83.800644 186.737717,82.601036 186.718536,81.207870
z" fill="#CC1B51" opacity="1.000000"
        stroke="none"/>
  <path d="
M380.981873,262.911438
	C380.159149,263.302338 379.593597,263.530762 379.028046,263.759186
	C378.828217,263.481232 378.628387,263.203308 378.428558,262.925354
	C379.264069,262.353516 380.099609,261.781708 380.935150,261.209869
	C381.036438,261.722900 381.137756,262.235962 380.981873,262.911438
z" fill="#CC1B51" opacity="1.000000"
        stroke="none"/>
  <path d="
M391.790436,277.750549
	C390.819489,278.186310 389.631531,278.353119 388.192322,278.335144
	C389.151855,277.927399 390.362640,277.704498 391.790436,277.750549
z" fill="#CC1B51" opacity="1.000000"
        stroke="none"/>
  <path d="
M355.748199,416.165588
	C356.437531,416.029083 356.884125,416.054352 357.663269,416.033630
	C357.245483,416.659973 356.495117,417.332245 355.394653,418.025146
	C355.044586,418.045776 354.998108,417.998535 354.974304,417.974609
	C355.135498,417.409576 355.320465,416.868469 355.748199,416.165588
z" fill="#CC1B51" opacity="1.000000"
        stroke="none"/>
  <path d="
M223.957733,301.118347
	C224.256531,301.823303 224.302628,302.645172 224.185623,303.737610
	C223.916687,303.083862 223.810867,302.159576 223.957733,301.118347
z" fill="#CC1B51" opacity="1.000000"
        stroke="none"/>
  <path d="
M244.103302,278.039612
	C244.568207,277.476471 245.037369,277.259094 245.697311,276.854187
	C245.715958,277.583618 245.543823,278.500519 245.371689,279.417450
	C244.950302,279.073425 244.528931,278.729401 244.103302,278.039612
z" fill="#CC1B51" opacity="1.000000"
        stroke="none"/>
  <path d="
M222.726578,281.163635
	C223.141693,281.508911 223.349915,281.993683 223.496140,282.742249
	C223.129318,282.438385 222.824509,281.870789 222.726578,281.163635
z" fill="#CC1B51" opacity="1.000000"
        stroke="none"/>
  <path d="
M415.127136,277.885315
	C415.524811,277.585388 415.909210,277.634552 416.580627,277.638611
	C416.610413,278.212799 416.353119,278.832001 416.095825,279.451233
	C415.768494,279.045593 415.441132,278.639984 415.127136,277.885315
z" fill="#CC1B51" opacity="1.000000"
        stroke="none"/>
  <path d="
M327.923584,460.074310
	C327.478088,460.314056 326.953125,460.321564 326.216858,460.156738
	C326.618408,459.936920 327.231293,459.889496 327.923584,460.074310
z" fill="#CC1B51" opacity="1.000000"
        stroke="none"/>
  <path d="
M329.022827,448.024170
	C328.726776,448.547089 328.405090,449.043854 328.083374,449.540588
	C327.874146,449.359100 327.664948,449.177612 327.455719,448.996124
	C327.767120,448.682678 328.078522,448.369202 328.667297,448.001282
	C328.944641,447.946838 328.997162,447.997955 329.022827,448.024170
z" fill="#CC1B51" opacity="1.000000"
        stroke="none"/>
  <path d="
M316.759521,318.155273
	C317.105042,318.560913 317.224701,319.116394 317.194702,319.844116
	C316.874573,319.445953 316.704102,318.875580 316.759521,318.155273
z" fill="#CC1B51" opacity="1.000000"
        stroke="none"/>
  <path d="
M401.199341,336.062134
	C401.416901,336.526031 401.387573,337.056885 401.178894,337.793823
	C400.983856,337.376282 400.968140,336.752716 401.199341,336.062134
z" fill="#CC1B51" opacity="1.000000"
        stroke="none"/>
  <path d="
M177.617371,45.269444
	C178.006500,45.076183 178.202667,45.062595 178.688202,44.992104
	C178.590393,45.487263 178.203186,46.039330 177.815994,46.591396
	C177.685471,46.210636 177.554947,45.829876 177.617371,45.269444
z" fill="#CC1B51" opacity="1.000000"
        stroke="none"/>
  <path d="
M177.099121,63.922806
	C176.859802,64.080750 176.440460,64.056610 176.230560,64.059662
	C176.449493,63.543808 176.878326,63.024895 177.307159,62.505981
	C177.317581,62.925606 177.328018,63.345234 177.099121,63.922806
z" fill="#CC1B51" opacity="1.000000"
        stroke="none"/>
  <path d="
M484.868958,64.195610
	C484.847656,64.531067 484.534485,64.445267 484.421234,64.329971
	C484.045349,63.716564 483.776978,63.221130 483.538605,62.711651
	C483.527802,62.688572 483.901794,62.454151 483.905975,62.459820
	C484.246277,62.917534 484.567566,63.389362 484.868958,64.195610
z" fill="#CC1B51" opacity="1.000000"
        stroke="none"/>
  <path d="
M482.778473,129.166901
	C483.002472,128.998596 483.464600,128.903610 483.686951,128.824829
	C483.632019,129.356522 483.354675,129.966980 483.077362,130.577438
	C482.903046,130.163361 482.728760,129.749283 482.778473,129.166901
z" fill="#CC1B51" opacity="1.000000"
        stroke="none"/>
  <path d="
M409.148621,138.065613
	C409.358673,138.519196 409.329926,139.043106 409.126831,139.775146
	C408.938202,139.367477 408.923981,138.751709 409.148621,138.065613
z" fill="#CC1B51" opacity="1.000000"
        stroke="none"/>
  <path d="
M407.058228,149.075714
	C407.277771,149.514908 407.269653,150.033203 407.097229,150.764221
	C406.898804,150.369583 406.864685,149.762207 407.058228,149.075714
z" fill="#CC1B51" opacity="1.000000"
        stroke="none"/>
  <path d="
M406.002136,155.086029
	C406.311279,155.444229 406.412384,155.887756 406.448547,156.668365
	C406.187134,156.394089 405.990631,155.782715 406.002136,155.086029
z" fill="#CC1B51" opacity="1.000000"
        stroke="none"/>
  <path d="
M315.021790,278.085754
	C315.283112,278.523682 315.316620,279.048492 315.184204,279.789917
	C314.943512,279.395264 314.868774,278.783936 315.021790,278.085754
z" fill="#CC1B51" opacity="1.000000"
        stroke="none"/>
  <path d="
M281.608124,265.044739
	C281.210236,265.287537 280.814423,265.285889 280.420837,265.255493
	C280.409698,265.254639 280.422211,264.947784 280.423706,264.783630
	C280.819305,264.787811 281.214935,264.792023 281.608124,265.044739
z" fill="#CC1B51" opacity="1.000000"
        stroke="none"/>
  <path d="
M456.147400,240.735779
	C456.559814,240.608078 456.945740,240.824387 457.661163,241.006500
	C457.686462,241.495819 457.382233,242.019287 457.078003,242.542755
	C456.758972,242.055099 456.439941,241.567444 456.147400,240.735779
z" fill="#CC1B51" opacity="1.000000"
        stroke="none"/>
  <path d="
M422.067810,236.652664
	C422.009491,236.394562 422.422546,236.127914 422.650787,236.036621
	C423.088226,236.420059 423.297424,236.894791 423.506622,237.369537
	C423.046448,237.216614 422.586273,237.063690 422.067810,236.652664
z" fill="#CC1B51" opacity="1.000000"
        stroke="none"/>
  <path d="
M432.799225,233.119110
	C433.166779,233.499832 433.323425,234.003510 433.362762,234.754593
	C433.026398,234.415344 432.807373,233.828690 432.799225,233.119110
z" fill="#CC1B51" opacity="1.000000"
        stroke="none"/>
  <path d="
M238.003174,232.090469
	C238.281097,232.527344 238.332153,233.054245 238.213806,233.798645
	C237.955048,233.404251 237.865677,232.792374 238.003174,232.090469
z" fill="#CC1B51" opacity="1.000000"
        stroke="none"/>
  <path d="
M430.691040,210.173630
	C431.090607,210.527390 431.293701,211.015213 431.390717,211.753555
	C431.021271,211.438614 430.757904,210.873154 430.691040,210.173630
z" fill="#CC1B51" opacity="1.000000"
        stroke="none"/>
  <path d="
M408.740173,170.156219
	C409.150391,170.505783 409.352020,170.992813 409.487122,171.742889
	C409.124237,171.435181 408.827911,170.864426 408.740173,170.156219
z" fill="#CC1B51" opacity="1.000000"
        stroke="none"/>
  <path d="
M406.727448,160.160217
	C407.129913,160.512100 407.327637,160.999603 407.446045,161.746368
	C407.085388,161.435715 406.804047,160.865784 406.727448,160.160217
z" fill="#CC1B51" opacity="1.000000"
        stroke="none"/>
  <path d="
M333.005371,448.995789
	C333.130188,449.137817 333.249634,449.284058 333.369080,449.430298
	C333.281647,449.382080 333.194183,449.333832 333.049255,449.148071
	C332.991791,449.010590 333.000000,449.000000 333.005371,448.995789
z" fill="#CC1B51" opacity="1.000000"
        stroke="none"/>
  <path d="
M438.651001,42.605553
	C438.651642,42.089680 438.851715,41.806221 439.454590,41.659142
	C439.999756,41.956322 440.142151,42.117126 440.284515,42.277927
	C440.203339,42.617775 440.018860,42.886787 439.502197,43.182961
	C439.132385,43.133289 438.991394,42.985626 438.651001,42.605553
z" fill="#F3CDD9" opacity="1.000000"
        stroke="none"/>
  <path d="
M439.680725,41.526115
	C439.890747,41.071869 440.277405,40.887032 440.664062,40.702194
	C440.719086,41.096107 440.774139,41.490021 440.556854,42.080933
	C440.142151,42.117126 439.999756,41.956322 439.680725,41.526115
z" fill="#F3CDD9" opacity="1.000000"
        stroke="none"/>
  <path d="
M211.920502,30.854027
	C211.756897,31.302866 211.522919,31.583330 211.039398,31.986309
	C210.789871,32.108822 210.560379,31.996916 210.491104,31.891100
	C210.597763,31.558355 210.773697,31.331425 211.248444,30.793243
	C211.547272,30.481997 211.850143,30.685648 211.920502,30.854027
z" fill="#FBEFF3" opacity="1.000000"
        stroke="none"/>
  <path d="
M346.584991,219.585297
	C343.168243,224.128418 340.085907,228.482956 336.691864,232.579193
	C332.607361,237.508698 327.588806,237.574951 323.715210,232.494446
	C315.547424,221.781708 307.729401,210.803070 299.639130,200.030182
	C295.339081,194.304291 290.708527,188.979568 284.153687,185.457336
	C279.637817,183.030731 279.141815,177.651459 283.330963,175.957260
	C291.202393,172.773895 293.905548,165.737976 297.603180,159.435547
	C302.911469,150.387924 311.274139,147.406662 320.941406,146.812546
	C325.589203,146.526901 330.314575,147.177597 334.924255,146.670944
	C342.817657,145.803375 350.100372,147.968063 356.191803,152.215942
	C360.295746,155.077835 363.281616,160.035797 365.755341,164.604233
	C368.235077,169.183777 371.102020,172.680389 375.838623,175.050598
	C380.816620,177.541626 381.489807,182.227936 377.227173,184.842514
	C363.511780,193.255112 355.396515,206.454742 346.584991,219.585297
M332.110870,220.969040
	C342.104248,207.305298 352.097595,193.641571 362.042725,180.043777
	C359.506073,175.625778 356.569305,170.620010 353.740082,165.554199
	C350.633270,159.991348 345.348175,158.160446 339.601013,157.778946
	C333.463684,157.371552 327.266632,157.448685 321.117462,157.753815
	C315.113403,158.051712 309.772888,159.960190 306.607574,165.747208
	C303.835175,170.815826 300.885345,175.787384 298.436554,180.063705
	C307.304688,192.283646 316.075836,204.387009 324.872192,216.472031
	C326.144775,218.220428 327.420441,219.999878 328.946472,221.510620
	C329.412567,221.972061 330.720459,221.583160 332.110870,220.969040
z" fill="#CC1B51" opacity="1.000000"
        stroke="none"/>
  <path d="
M331.876862,221.276367
	C330.720459,221.583160 329.412567,221.972061 328.946472,221.510620
	C327.420441,219.999878 326.144775,218.220428 324.872192,216.472031
	C316.075836,204.387009 307.304688,192.283646 298.436554,180.063705
	C300.885345,175.787384 303.835175,170.815826 306.607574,165.747208
	C309.772888,159.960190 315.113403,158.051712 321.117462,157.753815
	C327.266632,157.448685 333.463684,157.371552 339.601013,157.778946
	C345.348175,158.160446 350.633270,159.991348 353.740082,165.554199
	C356.569305,170.620010 359.506073,175.625778 362.042725,180.043777
	C352.097595,193.641571 342.104248,207.305298 331.876862,221.276367
z" fill="#FEFCFD" opacity="1.000000"
        stroke="none"/>
</svg>
